<?xml version="1.0" encoding="UTF-8" standalone="no"?>
<svg width="300px" height="200px" viewBox="0 0 300 200" version="1.1" xmlns="http://www.w3.org/2000/svg" xmlns:xlink="http://www.w3.org/1999/xlink" xmlns:sketch="http://www.bohemiancoding.com/sketch/ns">
    <!-- Generator: Sketch 3.0.4 (8054) - http://www.bohemiancoding.com/sketch -->
    <title>Cloudy</title>
    <desc>Created with Sketch.</desc>
    <defs></defs>
    <g id="Icons" stroke="none" stroke-width="1" fill="none" fill-rule="evenodd" sketch:type="MSPage">
        <g id="Cloudy" sketch:type="MSArtboardGroup" stroke="#4A4A4A" stroke-width="7" fill="#FFFFFF" fill-opacity="0.2">
            <g id="Cloudy-2" sketch:type="MSLayerGroup" transform="translate(13.000000, 35.000000)">
                <path d="M189.32267,112.061547 C181.139861,122.620207 168.362838,129.451455 153.98266,129.569606 L153.98266,129.571164 L33.3755519,129.571164 C14.9427436,129.571164 0,114.655264 0,96.2555685 C0,77.8558735 14.9427436,62.9399735 33.3755519,62.9399735 C36.5376861,62.9399735 39.5971107,63.3789356 42.4960063,64.1991443 C46.9509935,37.700635 70.0388457,17.5096167 97.8510499,17.5096167 C108.076341,17.5096167 117.663042,20.2388382 125.919954,25.0073264 C121.636724,31.4257593 118.644728,38.7764017 117.314356,46.6895277 C114.41546,45.8693189 111.356036,45.4303568 108.193901,45.4303568 C89.7610931,45.4303568 74.8183495,60.3462568 74.8183495,78.7459518 C74.8183495,97.1456469 89.7610931,112.061547 108.193901,112.061547 L189.32267,112.061547 Z" id="Cloud" sketch:type="MSShapeGroup"></path>
                <path d="M228.864648,111.726469 C253.616213,111.523104 273.618229,91.431344 273.618229,66.6762558 C273.618229,41.7948499 253.411564,21.6244852 228.48538,21.6244852 C224.939689,21.6244852 221.489496,22.0326202 218.179375,22.8043936 C207.977033,8.78322762 191.421616,-0.333520561 172.733037,-0.333520561 C144.920833,-0.333520561 121.832981,19.8574978 117.377994,46.3560071 C114.479098,45.5357984 111.419674,45.0968363 108.257539,45.0968363 C89.8247312,45.0968363 74.8819876,60.0127362 74.8819876,78.4124313 C74.8819876,96.8121263 89.8247312,111.728026 108.257539,111.728026 L228.864648,111.728026 L228.864648,111.726469 Z" id="Cloud-4" sketch:type="MSShapeGroup"></path>
            </g>
        </g>
    </g>
</svg>