<?xml version="1.0" encoding="UTF-8" standalone="no"?>
<svg width="300px" height="200px" viewBox="0 0 300 200" version="1.1" xmlns="http://www.w3.org/2000/svg" xmlns:xlink="http://www.w3.org/1999/xlink" xmlns:sketch="http://www.bohemiancoding.com/sketch/ns">
    <!-- Generator: Sketch 3.0.4 (8054) - http://www.bohemiancoding.com/sketch -->
    <title>Flurries</title>
    <desc>Created with Sketch.</desc>
    <defs></defs>
    <g id="Icons" stroke="none" stroke-width="1" fill="none" fill-rule="evenodd" sketch:type="MSPage">
        <g id="Flurries" sketch:type="MSArtboardGroup" stroke="#4A4A4A">
            <g id="Flurries-2" sketch:type="MSLayerGroup" transform="translate(25.000000, 10.000000)">
                <path d="M193.424602,139.965027 C224.449721,139.710262 249.521464,114.540365 249.521464,83.5284962 C249.521464,52.3583835 224.193201,27.0900145 192.949205,27.0900145 C188.504821,27.0900145 184.180138,27.6013044 180.031031,28.5681415 C167.242794,11.0031643 146.491228,-0.417816967 123.065826,-0.417816967 C88.2043166,-0.417816967 59.2645975,24.8764258 53.6804453,58.0723605 C50.0467932,57.0448463 46.2119242,56.4949377 42.2483128,56.4949377 C19.143509,56.4949377 0.413364746,75.1807904 0.413364746,98.2309579 C0.413364746,121.281125 19.143509,139.966978 42.2483128,139.966978 L193.424602,139.966978 L193.424602,139.965027 Z" id="Cloud--front" stroke-width="7" fill-opacity="0.2" fill="#FFFFFF" sketch:type="MSShapeGroup"></path>
                <g id="Snow-Row2" transform="translate(37.198062, 154.285714)" sketch:type="MSShapeGroup">
                    <g id="Snow--x-small1">
                        <path d="M8.52525463,10.1726686 L12.8659266,7.36845322 L17.2065987,10.1483322 L17.2065987,15.1538149 L12.8659266,17.6785525 L8.52525463,15.1538149 L8.52525463,10.1726686 Z" id="Path-93" fill-opacity="0.1" fill="#FFFFFF"></path>
                        <path d="M12.8793103,0.158730159 L12.8793103,25.5555556" id="Line" stroke-linecap="round"></path>
                        <path d="M0.467363433,12.2981366 L25.3934132,12.2981366" id="Line" stroke-linecap="round" transform="translate(12.930388, 12.857143) rotate(-30.000000) translate(-12.930388, -12.857143) "></path>
                        <path d="M2.21498606,6.211742 L23.8015784,18.9101547" id="Line-2" stroke-linecap="round"></path>
                        <g id="north-end" transform="translate(9.035693, 0.000000)" stroke-linecap="round">
                            <path d="M3.89469528,3.96825397 L0.149302276,0.152122132" id="Line"></path>
                            <path d="M4.05048309,3.81613184 L7.79587609,0" id="Line-2"></path>
                        </g>
                        <g id="north-end-2" transform="translate(3.981746, 7.296746) rotate(-58.000000) translate(-3.981746, -7.296746) translate(0.061956, 5.060721)" stroke-linecap="round">
                            <path d="M3.89469528,3.96825397 L0.149302276,0.152122132" id="Line"></path>
                            <path d="M4.05048309,3.81613184 L7.79587609,-3.08642001e-14" id="Line-2"></path>
                        </g>
                        <g id="north-end-right" transform="translate(21.821651, 7.323674) rotate(-300.000000) translate(-21.821651, -7.323674) translate(17.901861, 5.087649)" stroke-linecap="round">
                            <path d="M3.89469528,3.96825397 L0.149302276,0.152122132" id="Line"></path>
                            <path d="M4.05048309,3.81613184 L7.79587609,2.57571742e-14" id="Line-2"></path>
                        </g>
                        <g id="south-end" transform="translate(9.035693, 21.587302)" stroke-linecap="round">
                            <path d="M7.63360274,3.96825397 L3.88820974,0.152122132" id="Line-2"></path>
                            <path d="M0,4.13359215 L3.745393,0.317460317" id="Line-3"></path>
                        </g>
                        <g id="south-end-left" transform="translate(3.683933, 17.995487) rotate(-300.000000) translate(-3.683933, -17.995487) translate(-0.235857, 15.759462)" stroke-linecap="round">
                            <path d="M7.63360274,3.96825397 L3.88820974,0.152122132" id="Line-2"></path>
                            <path d="M2.57571742e-14,4.13359215 L3.745393,0.317460317" id="Line-3"></path>
                        </g>
                        <g id="south-end-right" transform="translate(22.128304, 18.001079) rotate(-60.000000) translate(-22.128304, -18.001079) translate(18.208514, 15.765054)" stroke-linecap="round">
                            <path d="M7.63360274,3.96825397 L3.88820974,0.152122132" id="Line-2"></path>
                            <path d="M-1.19904087e-14,4.13359215 L3.745393,0.317460317" id="Line-3"></path>
                        </g>
                    </g>
                    <g id="Snow--x-small1-2" transform="translate(47.000000, 0.000000)">
                        <path d="M8.52525463,10.1726686 L12.8659266,7.36845322 L17.2065987,10.1483322 L17.2065987,15.1538149 L12.8659266,17.6785525 L8.52525463,15.1538149 L8.52525463,10.1726686 Z" id="Path-93" fill-opacity="0.1" fill="#FFFFFF"></path>
                        <path d="M12.8793103,0.158730159 L12.8793103,25.5555556" id="Line" stroke-linecap="round"></path>
                        <path d="M0.467363433,12.2981366 L25.3934132,12.2981366" id="Line" stroke-linecap="round" transform="translate(12.930388, 12.857143) rotate(-30.000000) translate(-12.930388, -12.857143) "></path>
                        <path d="M2.21498606,6.211742 L23.8015784,18.9101547" id="Line-2" stroke-linecap="round"></path>
                        <g id="north-end" transform="translate(9.035693, 0.000000)" stroke-linecap="round">
                            <path d="M3.89469528,3.96825397 L0.149302276,0.152122132" id="Line"></path>
                            <path d="M4.05048309,3.81613184 L7.79587609,0" id="Line-2"></path>
                        </g>
                        <g id="north-end-2" transform="translate(3.981746, 7.296746) rotate(-58.000000) translate(-3.981746, -7.296746) translate(0.061956, 5.060721)" stroke-linecap="round">
                            <path d="M3.89469528,3.96825397 L0.149302276,0.152122132" id="Line"></path>
                            <path d="M4.05048309,3.81613184 L7.79587609,-3.08642001e-14" id="Line-2"></path>
                        </g>
                        <g id="north-end-right" transform="translate(21.821651, 7.323674) rotate(-300.000000) translate(-21.821651, -7.323674) translate(17.901861, 5.087649)" stroke-linecap="round">
                            <path d="M3.89469528,3.96825397 L0.149302276,0.152122132" id="Line"></path>
                            <path d="M4.05048309,3.81613184 L7.79587609,2.57571742e-14" id="Line-2"></path>
                        </g>
                        <g id="south-end" transform="translate(9.035693, 21.587302)" stroke-linecap="round">
                            <path d="M7.63360274,3.96825397 L3.88820974,0.152122132" id="Line-2"></path>
                            <path d="M0,4.13359215 L3.745393,0.317460317" id="Line-3"></path>
                        </g>
                        <g id="south-end-left" transform="translate(3.683933, 17.995487) rotate(-300.000000) translate(-3.683933, -17.995487) translate(-0.235857, 15.759462)" stroke-linecap="round">
                            <path d="M7.63360274,3.96825397 L3.88820974,0.152122132" id="Line-2"></path>
                            <path d="M2.57571742e-14,4.13359215 L3.745393,0.317460317" id="Line-3"></path>
                        </g>
                        <g id="south-end-right" transform="translate(22.128304, 18.001079) rotate(-60.000000) translate(-22.128304, -18.001079) translate(18.208514, 15.765054)" stroke-linecap="round">
                            <path d="M7.63360274,3.96825397 L3.88820974,0.152122132" id="Line-2"></path>
                            <path d="M-1.19904087e-14,4.13359215 L3.745393,0.317460317" id="Line-3"></path>
                        </g>
                    </g>
                    <g id="Snow--x-small1-3" transform="translate(99.000000, 0.000000)">
                        <path d="M8.52525463,10.1726686 L12.8659266,7.36845322 L17.2065987,10.1483322 L17.2065987,15.1538149 L12.8659266,17.6785525 L8.52525463,15.1538149 L8.52525463,10.1726686 Z" id="Path-93" fill-opacity="0.1" fill="#FFFFFF"></path>
                        <path d="M12.8793103,0.158730159 L12.8793103,25.5555556" id="Line" stroke-linecap="round"></path>
                        <path d="M0.467363433,12.2981366 L25.3934132,12.2981366" id="Line" stroke-linecap="round" transform="translate(12.930388, 12.857143) rotate(-30.000000) translate(-12.930388, -12.857143) "></path>
                        <path d="M2.21498606,6.211742 L23.8015784,18.9101547" id="Line-2" stroke-linecap="round"></path>
                        <g id="north-end" transform="translate(9.035693, 0.000000)" stroke-linecap="round">
                            <path d="M3.89469528,3.96825397 L0.149302276,0.152122132" id="Line"></path>
                            <path d="M4.05048309,3.81613184 L7.79587609,0" id="Line-2"></path>
                        </g>
                        <g id="north-end-2" transform="translate(3.981746, 7.296746) rotate(-58.000000) translate(-3.981746, -7.296746) translate(0.061956, 5.060721)" stroke-linecap="round">
                            <path d="M3.89469528,3.96825397 L0.149302276,0.152122132" id="Line"></path>
                            <path d="M4.05048309,3.81613184 L7.79587609,-3.08642001e-14" id="Line-2"></path>
                        </g>
                        <g id="north-end-right" transform="translate(21.821651, 7.323674) rotate(-300.000000) translate(-21.821651, -7.323674) translate(17.901861, 5.087649)" stroke-linecap="round">
                            <path d="M3.89469528,3.96825397 L0.149302276,0.152122132" id="Line"></path>
                            <path d="M4.05048309,3.81613184 L7.79587609,2.57571742e-14" id="Line-2"></path>
                        </g>
                        <g id="south-end" transform="translate(9.035693, 21.587302)" stroke-linecap="round">
                            <path d="M7.63360274,3.96825397 L3.88820974,0.152122132" id="Line-2"></path>
                            <path d="M0,4.13359215 L3.745393,0.317460317" id="Line-3"></path>
                        </g>
                        <g id="south-end-left" transform="translate(3.683933, 17.995487) rotate(-300.000000) translate(-3.683933, -17.995487) translate(-0.235857, 15.759462)" stroke-linecap="round">
                            <path d="M7.63360274,3.96825397 L3.88820974,0.152122132" id="Line-2"></path>
                            <path d="M2.57571742e-14,4.13359215 L3.745393,0.317460317" id="Line-3"></path>
                        </g>
                        <g id="south-end-right" transform="translate(22.128304, 18.001079) rotate(-60.000000) translate(-22.128304, -18.001079) translate(18.208514, 15.765054)" stroke-linecap="round">
                            <path d="M7.63360274,3.96825397 L3.88820974,0.152122132" id="Line-2"></path>
                            <path d="M-1.19904087e-14,4.13359215 L3.745393,0.317460317" id="Line-3"></path>
                        </g>
                    </g>
                    <g id="Snow--x-small1-4" transform="translate(150.000000, 0.000000)">
                        <path d="M8.52525463,10.1726686 L12.8659266,7.36845322 L17.2065987,10.1483322 L17.2065987,15.1538149 L12.8659266,17.6785525 L8.52525463,15.1538149 L8.52525463,10.1726686 Z" id="Path-93" fill-opacity="0.1" fill="#FFFFFF"></path>
                        <path d="M12.8793103,0.158730159 L12.8793103,25.5555556" id="Line" stroke-linecap="round"></path>
                        <path d="M0.467363433,12.2981366 L25.3934132,12.2981366" id="Line" stroke-linecap="round" transform="translate(12.930388, 12.857143) rotate(-30.000000) translate(-12.930388, -12.857143) "></path>
                        <path d="M2.21498606,6.211742 L23.8015784,18.9101547" id="Line-2" stroke-linecap="round"></path>
                        <g id="north-end" transform="translate(9.035693, 0.000000)" stroke-linecap="round">
                            <path d="M3.89469528,3.96825397 L0.149302276,0.152122132" id="Line"></path>
                            <path d="M4.05048309,3.81613184 L7.79587609,0" id="Line-2"></path>
                        </g>
                        <g id="north-end-2" transform="translate(3.981746, 7.296746) rotate(-58.000000) translate(-3.981746, -7.296746) translate(0.061956, 5.060721)" stroke-linecap="round">
                            <path d="M3.89469528,3.96825397 L0.149302276,0.152122132" id="Line"></path>
                            <path d="M4.05048309,3.81613184 L7.79587609,-3.08642001e-14" id="Line-2"></path>
                        </g>
                        <g id="north-end-right" transform="translate(21.821651, 7.323674) rotate(-300.000000) translate(-21.821651, -7.323674) translate(17.901861, 5.087649)" stroke-linecap="round">
                            <path d="M3.89469528,3.96825397 L0.149302276,0.152122132" id="Line"></path>
                            <path d="M4.05048309,3.81613184 L7.79587609,2.57571742e-14" id="Line-2"></path>
                        </g>
                        <g id="south-end" transform="translate(9.035693, 21.587302)" stroke-linecap="round">
                            <path d="M7.63360274,3.96825397 L3.88820974,0.152122132" id="Line-2"></path>
                            <path d="M0,4.13359215 L3.745393,0.317460317" id="Line-3"></path>
                        </g>
                        <g id="south-end-left" transform="translate(3.683933, 17.995487) rotate(-300.000000) translate(-3.683933, -17.995487) translate(-0.235857, 15.759462)" stroke-linecap="round">
                            <path d="M7.63360274,3.96825397 L3.88820974,0.152122132" id="Line-2"></path>
                            <path d="M2.57571742e-14,4.13359215 L3.745393,0.317460317" id="Line-3"></path>
                        </g>
                        <g id="south-end-right" transform="translate(22.128304, 18.001079) rotate(-60.000000) translate(-22.128304, -18.001079) translate(18.208514, 15.765054)" stroke-linecap="round">
                            <path d="M7.63360274,3.96825397 L3.88820974,0.152122132" id="Line-2"></path>
                            <path d="M-1.19904087e-14,4.13359215 L3.745393,0.317460317" id="Line-3"></path>
                        </g>
                    </g>
                </g>
            </g>
        </g>
    </g>
</svg>