<?xml version="1.0" encoding="UTF-8" standalone="no"?>
<svg width="300px" height="200px" viewBox="0 0 300 200" version="1.1" xmlns="http://www.w3.org/2000/svg" xmlns:xlink="http://www.w3.org/1999/xlink" xmlns:sketch="http://www.bohemiancoding.com/sketch/ns">
    <!-- Generator: Sketch 3.0.4 (8054) - http://www.bohemiancoding.com/sketch -->
    <title>Lightning_storm</title>
    <desc>Created with Sketch.</desc>
    <defs></defs>
    <g id="Icons" stroke="none" stroke-width="1" fill="none" fill-rule="evenodd" sketch:type="MSPage">
        <g id="Lightning_storm" sketch:type="MSArtboardGroup" stroke="#4A4A4A">
            <g id="Lightning-Storm-2" sketch:type="MSLayerGroup" transform="translate(25.000000, 14.000000)">
                <path d="M172.739662,103.080204 C165.273595,112.792624 153.615728,119.076371 140.495128,119.185053 L140.495128,119.186486 L30.4521459,119.186486 C13.6338901,119.186486 0,105.466043 0,88.5410197 C0,71.6159961 13.6338901,57.8955537 30.4521459,57.8955537 C33.3373048,57.8955537 36.1287506,58.2993345 38.7737283,59.0538063 C42.8384977,34.6790603 63.9040563,16.1062818 89.280155,16.1062818 C98.6098005,16.1062818 107.35679,18.6167658 114.890469,23.0030763 C110.982413,28.9070941 108.252489,35.668608 107.038646,42.9475245 C104.393668,42.1930526 101.602222,41.7892718 98.7170634,41.7892718 C81.8988076,41.7892718 68.2649174,55.5097143 68.2649174,72.4347378 C68.2649174,89.3597613 81.8988076,103.080204 98.7170634,103.080204 L172.739662,103.080204 L172.739662,103.080204 Z" id="Cloud--back" stroke-width="7" fill-opacity="0.2" fill="#FFFFFF" sketch:type="MSShapeGroup"></path>
                <path d="M208.818109,102.771981 C231.401654,102.584915 249.651668,84.10344 249.651668,61.3323859 C249.651668,38.4451382 231.214931,19.891358 208.472062,19.891358 C205.236943,19.891358 202.088956,20.2667824 199.068773,20.9767008 C189.760066,8.07928249 174.654759,-0.306790049 157.603136,-0.306790049 C132.227038,-0.306790049 111.161479,18.2659884 107.09671,42.6407344 C104.451732,41.8862626 101.660286,41.4824818 98.7751273,41.4824818 C81.9568715,41.4824818 68.3229814,55.2029242 68.3229814,72.1279478 C68.3229814,89.0529713 81.9568715,102.773414 98.7751273,102.773414 L208.818109,102.773414 L208.818109,102.771981 Z" id="Cloud--front" stroke-width="7" fill-opacity="0.2" fill="#FFFFFF" sketch:type="MSShapeGroup"></path>
                <path d="M39.7981133,118.761905 L22.0209691,136.583746 L39.9649364,136.583746 L4.19340951,172.445212 L70.6539777,134.184635 L54.9861997,134.184635 L69.6008117,119.533278" id="The-Ligntning" stroke-width="5" sketch:type="MSShapeGroup"></path>
                <g id="Rain" transform="translate(69.748527, 104.324183)" stroke-width="7" stroke-linecap="round" sketch:type="MSShapeGroup">
                    <path d="M39.4864512,15.9283892 L-0.652545622,56.1713485" id="drop2"></path>
                    <path d="M77.3737436,15.9283892 L37.2347467,56.1713485" id="drop1"></path>
                    <path d="M136.301857,-0.0479468885 L77.1162307,59.2909738" id="drop"></path>
                </g>
            </g>
        </g>
    </g>
</svg>