<?xml version="1.0" encoding="UTF-8" standalone="no"?>
<svg width="300px" height="200px" viewBox="0 0 300 200" version="1.1" xmlns="http://www.w3.org/2000/svg" xmlns:xlink="http://www.w3.org/1999/xlink" xmlns:sketch="http://www.bohemiancoding.com/sketch/ns">
    <!-- Generator: Sketch 3.0.4 (8054) - http://www.bohemiancoding.com/sketch -->
    <title>Night_Partly_Cloudy</title>
    <desc>Created with Sketch.</desc>
    <defs></defs>
    <g id="Icons" stroke="none" stroke-width="1" fill="none" fill-rule="evenodd" sketch:type="MSPage">
        <g id="Night_Partly_Cloudy" sketch:type="MSArtboardGroup" stroke="#4A4A4A" stroke-width="7">
            <g id="Partly-Cloudy-Moon-2" sketch:type="MSLayerGroup" transform="translate(12.000000, 14.000000)">
                <path d="M215.011309,170.998091 C245.423538,170.748889 270,146.12856 270,115.793814 C270,85.30428 245.172086,60.5876289 214.545303,60.5876289 C210.188716,60.5876289 205.949465,61.0877551 201.882322,62.033482 C189.346712,44.8520242 169.005085,33.6804124 146.042442,33.6804124 C111.869608,33.6804124 83.5015812,58.4223724 78.0277418,90.8934963 C74.465871,89.8884172 70.7067583,89.3505155 66.8214464,89.3505155 C44.1730688,89.3505155 25.812931,107.628375 25.812931,130.175258 C25.812931,152.72214 44.1730688,171 66.8214464,171 L215.011309,171 L215.011309,170.998091 Z" id="Cloud--flat-2" fill-opacity="0.1" fill="#FFFFFF" sketch:type="MSShapeGroup"></path>
                <path d="M76.0075455,53.5636302 C70.0795926,67.7590569 56.0684668,77.7347487 39.7281804,77.7347487 C18.0230757,77.7347487 0.427611816,60.1333383 0.427611816,38.4208983 C0.427611816,19.2468488 14.1494139,3.27878093 32.3056404,-0.192788965 C30.3593838,4.46783226 29.2844369,9.58331153 29.2844369,14.9499429 C29.2844369,36.6623829 46.8799009,54.2637933 68.5850056,54.2637933 C71.1225384,54.2637933 73.6039014,54.0232202 76.0075455,53.5636302 L76.0075455,53.5636302 Z" id="Moon-2" sketch:type="MSShapeGroup"></path>
            </g>
        </g>
    </g>
</svg>