<?xml version="1.0" encoding="UTF-8" standalone="no"?>
<svg width="300px" height="200px" viewBox="0 0 300 200" version="1.1" xmlns="http://www.w3.org/2000/svg" xmlns:xlink="http://www.w3.org/1999/xlink" xmlns:sketch="http://www.bohemiancoding.com/sketch/ns">
    <!-- Generator: Sketch 3.0.4 (8054) - http://www.bohemiancoding.com/sketch -->
    <title>Partly_Sunny_1</title>
    <desc>Created with Sketch.</desc>
    <defs></defs>
    <g id="Icons" stroke="none" stroke-width="1" fill="none" fill-rule="evenodd" sketch:type="MSPage">
        <g id="Partly_Sunny_1" sketch:type="MSArtboardGroup" stroke="#4A4A4A" stroke-width="7">
            <g id="Partly-Sunny-3" sketch:type="MSLayerGroup" transform="translate(13.000000, 9.000000)">
                <path d="M220.306311,178.998307 C247.237005,178.77728 269,156.940601 269,130.035595 C269,102.993301 247.014339,81.0711897 219.893652,81.0711897 C216.035799,81.0711897 212.28185,81.5147702 208.680306,82.3535703 C197.579748,67.1147007 179.566792,57.2061856 159.23287,57.2061856 C128.972077,57.2061856 103.851569,79.1507438 99.0043639,107.950583 C95.8502494,107.059141 92.5214728,106.582056 89.0809441,106.582056 C69.0253101,106.582056 52.7670063,122.793365 52.7670063,142.791028 C52.7670063,162.788691 69.0253101,179 89.0809441,179 L220.306311,179 L220.306311,178.998307 Z" id="Cloud--flat-3" sketch:type="MSShapeGroup"></path>
                <path d="M128.10258,65.6999438 C137.218503,60.3042413 147.862843,57.2061856 159.23287,57.2061856 C179.566792,57.2061856 197.579748,67.1147007 208.680306,82.3535703 C212.28185,81.5147702 216.035799,81.0711897 219.893652,81.0711897 C247.014339,81.0711897 269,102.993301 269,130.035595 C269,156.940601 247.237005,178.77728 220.306311,178.998307 L220.306311,179 L89.0809441,179 C69.0253101,179 52.7670063,162.788691 52.7670063,142.791028 C52.7670063,136.41017 54.4222995,130.414808 57.3280758,125.208584 C40.8657786,116.944133 29.5701926,99.9257897 29.5701926,80.2731959 C29.5701926,52.5128655 52.1083428,30.0086714 79.91056,30.0086714 C102.637223,30.0086714 121.846387,45.0461816 128.10258,65.6999438 Z" id="Cloud--flat-2" fill-opacity="0.1" fill="#FFFFFF" sketch:type="MSShapeGroup"></path>
                <g id="Sun-2" sketch:type="MSShapeGroup" stroke-linecap="round">
                    <path d="M78.967803,29.2584546 L78.967803,0.750216784" id="0"></path>
                    <path d="M116.222226,43.6616421 L136.411011,23.5032738" id="45"></path>
                    <path d="M19.4758002,136.688523 L39.6645849,116.530155" id="225"></path>
                    <path d="M14.7746212,93.777098 L14.7746212,65.2688602" id="270" transform="translate(14.774621, 79.522979) rotate(90.000000) translate(-14.774621, -79.522979) "></path>
                    <path d="M40.9203569,43.0887226 L20.7315722,22.9303544" id="315"></path>
                </g>
            </g>
        </g>
    </g>
</svg>