<?xml version="1.0" encoding="UTF-8" standalone="no"?>
<svg width="300px" height="200px" viewBox="0 0 300 200" version="1.1" xmlns="http://www.w3.org/2000/svg" xmlns:xlink="http://www.w3.org/1999/xlink" xmlns:sketch="http://www.bohemiancoding.com/sketch/ns">
    <!-- Generator: Sketch 3.0.4 (8054) - http://www.bohemiancoding.com/sketch -->
    <title>Raining</title>
    <desc>Created with Sketch.</desc>
    <defs></defs>
    <g id="Icons" stroke="none" stroke-width="1" fill="none" fill-rule="evenodd" sketch:type="MSPage">
        <g id="Raining" sketch:type="MSArtboardGroup" stroke="#4A4A4A" stroke-width="7">
            <g id="Rain-2" sketch:type="MSLayerGroup" transform="translate(33.000000, 12.000000)">
                <path d="M181.916264,132.896112 C211.157948,132.654934 234.788479,108.827368 234.788479,79.4693878 C234.788479,49.9616026 210.916174,26.0408163 181.468195,26.0408163 C177.279289,26.0408163 173.203205,26.5248388 169.292603,27.4401136 C157.23948,10.811891 137.680788,0 115.601961,0 C82.7444152,0 55.4682542,23.9452801 50.2050991,55.3708486 C46.7803222,54.3981325 43.1658952,53.877551 39.4301262,53.877551 C17.6534688,53.877551 0,71.5668719 0,93.3877551 C0,115.208638 17.6534688,132.897959 39.4301262,132.897959 L181.916264,132.897959 L181.916264,132.896112 Z" id="Cloud-4" fill-opacity="0.1" fill="#FFFFFF" sketch:type="MSShapeGroup"></path>
                <g id="The-Rain" transform="translate(17.407407, 132.435644)" stroke-linecap="round" sketch:type="MSShapeGroup">
                    <path d="M42.1514896,0.714456272 L-0.60992173,43.5241436" id="Path-6"></path>
                    <path d="M82.4722742,0.714456272 L39.7108629,43.5241436" id="Path-7"></path>
                    <path d="M125.075367,0.714456272 L82.3139561,43.5241436" id="Path-7"></path>
                    <path d="M165.437963,0.714456272 L122.676552,43.5241436" id="Path-7"></path>
                </g>
            </g>
        </g>
    </g>
</svg>