<?xml version="1.0" encoding="UTF-8" standalone="no"?>
<svg width="300px" height="200px" viewBox="0 0 300 200" version="1.1" xmlns="http://www.w3.org/2000/svg" xmlns:xlink="http://www.w3.org/1999/xlink" xmlns:sketch="http://www.bohemiancoding.com/sketch/ns">
    <!-- Generator: Sketch 3.0.4 (8054) - http://www.bohemiancoding.com/sketch -->
    <title>Raining_2</title>
    <desc>Created with Sketch.</desc>
    <defs></defs>
    <g id="Icons" stroke="none" stroke-width="1" fill="none" fill-rule="evenodd" sketch:type="MSPage">
        <g id="Raining_2" sketch:type="MSArtboardGroup" stroke="#4A4A4A" fill="#FFFFFF" fill-opacity="0.1">
            <g id="Rain-3" sketch:type="MSLayerGroup" transform="translate(28.000000, 9.000000)">
                <path d="M50.8571812,146.647449 C50.8571812,146.647449 43.2437545,168.077445 43.2437545,175.94503 C43.2437545,183.812614 50.7174788,183.799486 50.7174788,183.799486 C50.7174788,183.799486 58.057819,183.799486 58.057819,176.318461 C58.057819,168.837436 50.8571812,146.647449 50.8571812,146.647449 Z" id="Rain-x-light" stroke-width="2" sketch:type="MSShapeGroup" transform="translate(50.769428, 165.154179) rotate(-315.000000) translate(-50.769428, -165.154179) "></path>
                <path d="M90.1657697,146.647449 C90.1657697,146.647449 82.552343,168.077445 82.552343,175.94503 C82.552343,183.812614 90.0260674,183.799486 90.0260674,183.799486 C90.0260674,183.799486 97.3664076,183.799486 97.3664076,176.318461 C97.3664076,168.837436 90.1657697,146.647449 90.1657697,146.647449 Z" id="Rain-x-light-2" stroke-width="2" sketch:type="MSShapeGroup" transform="translate(90.078017, 165.154179) rotate(-315.000000) translate(-90.078017, -165.154179) "></path>
                <path d="M128.84998,146.647449 C128.84998,146.647449 121.236554,168.077445 121.236554,175.94503 C121.236554,183.812614 128.710278,183.799486 128.710278,183.799486 C128.710278,183.799486 136.050618,183.799486 136.050618,176.318461 C136.050618,168.837436 128.84998,146.647449 128.84998,146.647449 Z" id="Rain-x-light-3" stroke-width="2" sketch:type="MSShapeGroup" transform="translate(128.762228, 165.154179) rotate(-315.000000) translate(-128.762228, -165.154179) "></path>
                <path d="M168.751918,146.647449 C168.751918,146.647449 161.138491,168.077445 161.138491,175.94503 C161.138491,183.812614 168.612216,183.799486 168.612216,183.799486 C168.612216,183.799486 175.952556,183.799486 175.952556,176.318461 C175.952556,168.837436 168.751918,146.647449 168.751918,146.647449 Z" id="Rain-x-light-4" stroke-width="2" sketch:type="MSShapeGroup" transform="translate(168.664165, 165.154179) rotate(-315.000000) translate(-168.664165, -165.154179) "></path>
                <path d="M189.828244,138.634437 C220.34172,138.382845 245,113.526428 245,82.9007985 C245,52.1188959 220.089431,27.1652334 189.360687,27.1652334 C184.989596,27.1652334 180.736233,27.6701555 176.65555,28.624951 C164.078207,11.2787379 143.668859,0 120.629771,0 C86.3431708,0 57.8807033,24.979214 52.3886408,57.7617079 C48.814912,56.7469909 45.0432848,56.2039312 41.1450382,56.2039312 C18.4212611,56.2039312 0,74.6570598 0,97.4201474 C0,120.183235 18.4212611,138.636364 41.1450382,138.636364 L189.828244,138.636364 Z" id="Cloud-2" stroke-width="7" sketch:type="MSShapeGroup"></path>
            </g>
        </g>
    </g>
</svg>