<?xml version="1.0" encoding="UTF-8" standalone="no"?>
<svg width="300px" height="200px" viewBox="0 0 300 200" version="1.1" xmlns="http://www.w3.org/2000/svg" xmlns:xlink="http://www.w3.org/1999/xlink" xmlns:sketch="http://www.bohemiancoding.com/sketch/ns">
    <!-- Generator: Sketch 3.0.4 (8054) - http://www.bohemiancoding.com/sketch -->
    <title>Snowing</title>
    <desc>Created with Sketch.</desc>
    <defs></defs>
    <g id="Icons" stroke="none" stroke-width="1" fill="none" fill-rule="evenodd" sketch:type="MSPage">
        <g id="Snowing" sketch:type="MSArtboardGroup" stroke="#4A4A4A">
            <g id="Snowing-2" sketch:type="MSLayerGroup" transform="translate(11.000000, 12.000000)">
                <path d="M198.323942,107.368371 C190.527796,117.484831 178.354529,124.029984 164.65386,124.143187 L164.65386,124.144679 L49.7458197,124.144679 C32.18402,124.144679 17.9473684,109.853462 17.9473684,92.2243524 C17.9473684,74.5952429 32.18402,60.3040259 49.7458197,60.3040259 C52.758533,60.3040259 55.6733901,60.7246041 58.4353037,61.5104622 C62.6797787,36.1217195 84.6766567,16.776308 111.174646,16.776308 C120.91676,16.776308 130.050458,19.3912288 137.917206,23.9600111 C133.836372,30.1096378 130.985757,37.1524327 129.718249,44.7341543 C126.956335,43.9482962 124.041478,43.527718 121.028765,43.527718 C103.466965,43.527718 89.2303138,57.8189349 89.2303138,75.4480444 C89.2303138,93.077154 103.466965,107.368371 121.028765,107.368371 L198.323942,107.368371 L198.323942,107.368371 Z" id="Cloud--back" stroke-width="7" fill-opacity="0.2" fill="#FFFFFF" sketch:type="MSShapeGroup"></path>
                <path d="M235.997436,107.047326 C259.579411,106.852478 278.636268,87.6021681 278.636268,63.8838314 C278.636268,40.0444673 259.384433,20.7188444 235.63609,20.7188444 C232.257945,20.7188444 228.970783,21.1098865 225.817076,21.8493378 C216.096827,8.41538305 200.323707,-0.319552606 182.518222,-0.319552606 C156.020233,-0.319552606 134.023355,19.025859 129.77888,44.4146017 C127.016966,43.6287436 124.102109,43.2081653 121.089396,43.2081653 C103.527596,43.2081653 89.2909448,57.4993823 89.2909448,75.1284918 C89.2909448,92.7576014 103.527596,107.048818 121.089396,107.048818 L235.997436,107.048818 L235.997436,107.047326 Z" id="Cloud--front" stroke-width="7" fill-opacity="0.2" fill="#FFFFFF" sketch:type="MSShapeGroup"></path>
                <g id="Snow-Row1" transform="translate(0.000000, 157.333333)" sketch:type="MSShapeGroup">
                    <g id="Snow--x-small1-6" transform="translate(156.507854, 0.297501)">
                        <path d="M6.46033911,7.70873029 L9.74965004,5.58372841 L13.038961,7.6902885 L13.038961,11.4833852 L9.74965004,13.3966021 L6.46033911,11.4833852 L6.46033911,7.70873029 Z" id="Path-93" fill-opacity="0.1" fill="#FFFFFF"></path>
                        <path d="M9.75979205,0.120283874 L9.75979205,19.3657037" id="Line" stroke-linecap="round"></path>
                        <path d="M0.354162591,9.31938536 L19.2428341,9.31938536" id="Line" stroke-linecap="round" transform="translate(9.798498, 9.742994) rotate(-30.000000) translate(-9.798498, -9.742994) "></path>
                        <path d="M1.67849076,4.70718606 L18.0365601,14.329896" id="Line-2" stroke-linecap="round"></path>
                        <g id="north-end" transform="translate(6.847143, 0.000000)" stroke-linecap="round">
                            <path d="M2.95135492,3.00709685 L0.113139534,0.115276388" id="Line"></path>
                            <path d="M3.06940912,2.89182046 L5.90762451,0" id="Line-2"></path>
                        </g>
                        <g id="north-end-2" transform="translate(3.017321, 5.529389) rotate(-58.000000) translate(-3.017321, -5.529389) translate(0.046950, 3.834956)" stroke-linecap="round">
                            <path d="M2.95135492,3.00709685 L0.113139534,0.115276388" id="Line"></path>
                            <path d="M3.06940912,2.89182046 L5.90762451,-2.33146835e-14" id="Line-2"></path>
                        </g>
                        <g id="north-end-right" transform="translate(16.536194, 5.549795) rotate(-300.000000) translate(-16.536194, -5.549795) translate(13.565822, 3.855361)" stroke-linecap="round">
                            <path d="M2.95135492,3.00709685 L0.113139534,0.115276388" id="Line"></path>
                            <path d="M3.06940912,2.89182046 L5.90762451,1.95399252e-14" id="Line-2"></path>
                        </g>
                        <g id="south-end" transform="translate(6.847143, 16.358607)" stroke-linecap="round">
                            <path d="M5.78465565,3.00709685 L2.94644026,0.115276388" id="Line-2"></path>
                            <path d="M0,3.13238821 L2.83821539,0.240567748" id="Line-3"></path>
                        </g>
                        <g id="south-end-left" transform="translate(2.791642, 13.636771) rotate(-300.000000) translate(-2.791642, -13.636771) translate(-0.178730, 11.942337)" stroke-linecap="round">
                            <path d="M5.78465565,3.00709685 L2.94644026,0.115276388" id="Line-2"></path>
                            <path d="M1.95399252e-14,3.13238821 L2.83821539,0.240567748" id="Line-3"></path>
                        </g>
                        <g id="south-end-right" transform="translate(16.768572, 13.641009) rotate(-60.000000) translate(-16.768572, -13.641009) translate(13.798201, 11.946575)" stroke-linecap="round">
                            <path d="M5.78465565,3.00709685 L2.94644026,0.115276388" id="Line-2"></path>
                            <path d="M-9.1038288e-15,3.13238821 L2.83821539,0.240567748" id="Line-3"></path>
                        </g>
                    </g>
                    <g id="Snow--x-small1-6" transform="translate(114.210526, 0.297501)">
                        <path d="M6.46033911,7.70873029 L9.74965004,5.58372841 L13.038961,7.6902885 L13.038961,11.4833852 L9.74965004,13.3966021 L6.46033911,11.4833852 L6.46033911,7.70873029 Z" id="Path-93" fill-opacity="0.1" fill="#FFFFFF"></path>
                        <path d="M9.75979205,0.120283874 L9.75979205,19.3657037" id="Line" stroke-linecap="round"></path>
                        <path d="M0.354162591,9.31938536 L19.2428341,9.31938536" id="Line" stroke-linecap="round" transform="translate(9.798498, 9.742994) rotate(-30.000000) translate(-9.798498, -9.742994) "></path>
                        <path d="M1.67849076,4.70718606 L18.0365601,14.329896" id="Line-2" stroke-linecap="round"></path>
                        <g id="north-end" transform="translate(6.847143, 0.000000)" stroke-linecap="round">
                            <path d="M2.95135492,3.00709685 L0.113139534,0.115276388" id="Line"></path>
                            <path d="M3.06940912,2.89182046 L5.90762451,0" id="Line-2"></path>
                        </g>
                        <g id="north-end-2" transform="translate(3.017321, 5.529389) rotate(-58.000000) translate(-3.017321, -5.529389) translate(0.046950, 3.834956)" stroke-linecap="round">
                            <path d="M2.95135492,3.00709685 L0.113139534,0.115276388" id="Line"></path>
                            <path d="M3.06940912,2.89182046 L5.90762451,-2.33146835e-14" id="Line-2"></path>
                        </g>
                        <g id="north-end-right" transform="translate(16.536194, 5.549795) rotate(-300.000000) translate(-16.536194, -5.549795) translate(13.565822, 3.855361)" stroke-linecap="round">
                            <path d="M2.95135492,3.00709685 L0.113139534,0.115276388" id="Line"></path>
                            <path d="M3.06940912,2.89182046 L5.90762451,1.95399252e-14" id="Line-2"></path>
                        </g>
                        <g id="south-end" transform="translate(6.847143, 16.358607)" stroke-linecap="round">
                            <path d="M5.78465565,3.00709685 L2.94644026,0.115276388" id="Line-2"></path>
                            <path d="M0,3.13238821 L2.83821539,0.240567748" id="Line-3"></path>
                        </g>
                        <g id="south-end-left" transform="translate(2.791642, 13.636771) rotate(-300.000000) translate(-2.791642, -13.636771) translate(-0.178730, 11.942337)" stroke-linecap="round">
                            <path d="M5.78465565,3.00709685 L2.94644026,0.115276388" id="Line-2"></path>
                            <path d="M1.95399252e-14,3.13238821 L2.83821539,0.240567748" id="Line-3"></path>
                        </g>
                        <g id="south-end-right" transform="translate(16.768572, 13.641009) rotate(-60.000000) translate(-16.768572, -13.641009) translate(13.798201, 11.946575)" stroke-linecap="round">
                            <path d="M5.78465565,3.00709685 L2.94644026,0.115276388" id="Line-2"></path>
                            <path d="M-9.1038288e-15,3.13238821 L2.83821539,0.240567748" id="Line-3"></path>
                        </g>
                    </g>
                    <g id="Snow--x-small1-6" transform="translate(74.990856, 0.297501)">
                        <path d="M6.46033911,7.70873029 L9.74965004,5.58372841 L13.038961,7.6902885 L13.038961,11.4833852 L9.74965004,13.3966021 L6.46033911,11.4833852 L6.46033911,7.70873029 Z" id="Path-93" fill-opacity="0.1" fill="#FFFFFF"></path>
                        <path d="M9.75979205,0.120283874 L9.75979205,19.3657037" id="Line" stroke-linecap="round"></path>
                        <path d="M0.354162591,9.31938536 L19.2428341,9.31938536" id="Line" stroke-linecap="round" transform="translate(9.798498, 9.742994) rotate(-30.000000) translate(-9.798498, -9.742994) "></path>
                        <path d="M1.67849076,4.70718606 L18.0365601,14.329896" id="Line-2" stroke-linecap="round"></path>
                        <g id="north-end" transform="translate(6.847143, 0.000000)" stroke-linecap="round">
                            <path d="M2.95135492,3.00709685 L0.113139534,0.115276388" id="Line"></path>
                            <path d="M3.06940912,2.89182046 L5.90762451,0" id="Line-2"></path>
                        </g>
                        <g id="north-end-2" transform="translate(3.017321, 5.529389) rotate(-58.000000) translate(-3.017321, -5.529389) translate(0.046950, 3.834956)" stroke-linecap="round">
                            <path d="M2.95135492,3.00709685 L0.113139534,0.115276388" id="Line"></path>
                            <path d="M3.06940912,2.89182046 L5.90762451,-2.33146835e-14" id="Line-2"></path>
                        </g>
                        <g id="north-end-right" transform="translate(16.536194, 5.549795) rotate(-300.000000) translate(-16.536194, -5.549795) translate(13.565822, 3.855361)" stroke-linecap="round">
                            <path d="M2.95135492,3.00709685 L0.113139534,0.115276388" id="Line"></path>
                            <path d="M3.06940912,2.89182046 L5.90762451,1.95399252e-14" id="Line-2"></path>
                        </g>
                        <g id="south-end" transform="translate(6.847143, 16.358607)" stroke-linecap="round">
                            <path d="M5.78465565,3.00709685 L2.94644026,0.115276388" id="Line-2"></path>
                            <path d="M0,3.13238821 L2.83821539,0.240567748" id="Line-3"></path>
                        </g>
                        <g id="south-end-left" transform="translate(2.791642, 13.636771) rotate(-300.000000) translate(-2.791642, -13.636771) translate(-0.178730, 11.942337)" stroke-linecap="round">
                            <path d="M5.78465565,3.00709685 L2.94644026,0.115276388" id="Line-2"></path>
                            <path d="M1.95399252e-14,3.13238821 L2.83821539,0.240567748" id="Line-3"></path>
                        </g>
                        <g id="south-end-right" transform="translate(16.768572, 13.641009) rotate(-60.000000) translate(-16.768572, -13.641009) translate(13.798201, 11.946575)" stroke-linecap="round">
                            <path d="M5.78465565,3.00709685 L2.94644026,0.115276388" id="Line-2"></path>
                            <path d="M-9.1038288e-15,3.13238821 L2.83821539,0.240567748" id="Line-3"></path>
                        </g>
                    </g>
                    <g id="Snow--x-small1-6" transform="translate(35.709410, 0.297501)">
                        <path d="M6.46033911,7.70873029 L9.74965004,5.58372841 L13.038961,7.6902885 L13.038961,11.4833852 L9.74965004,13.3966021 L6.46033911,11.4833852 L6.46033911,7.70873029 Z" id="Path-93" fill-opacity="0.1" fill="#FFFFFF"></path>
                        <path d="M9.75979205,0.120283874 L9.75979205,19.3657037" id="Line" stroke-linecap="round"></path>
                        <path d="M0.354162591,9.31938536 L19.2428341,9.31938536" id="Line" stroke-linecap="round" transform="translate(9.798498, 9.742994) rotate(-30.000000) translate(-9.798498, -9.742994) "></path>
                        <path d="M1.67849076,4.70718606 L18.0365601,14.329896" id="Line-2" stroke-linecap="round"></path>
                        <g id="north-end" transform="translate(6.847143, 0.000000)" stroke-linecap="round">
                            <path d="M2.95135492,3.00709685 L0.113139534,0.115276388" id="Line"></path>
                            <path d="M3.06940912,2.89182046 L5.90762451,0" id="Line-2"></path>
                        </g>
                        <g id="north-end-2" transform="translate(3.017321, 5.529389) rotate(-58.000000) translate(-3.017321, -5.529389) translate(0.046950, 3.834956)" stroke-linecap="round">
                            <path d="M2.95135492,3.00709685 L0.113139534,0.115276388" id="Line"></path>
                            <path d="M3.06940912,2.89182046 L5.90762451,-2.33146835e-14" id="Line-2"></path>
                        </g>
                        <g id="north-end-right" transform="translate(16.536194, 5.549795) rotate(-300.000000) translate(-16.536194, -5.549795) translate(13.565822, 3.855361)" stroke-linecap="round">
                            <path d="M2.95135492,3.00709685 L0.113139534,0.115276388" id="Line"></path>
                            <path d="M3.06940912,2.89182046 L5.90762451,1.95399252e-14" id="Line-2"></path>
                        </g>
                        <g id="south-end" transform="translate(6.847143, 16.358607)" stroke-linecap="round">
                            <path d="M5.78465565,3.00709685 L2.94644026,0.115276388" id="Line-2"></path>
                            <path d="M0,3.13238821 L2.83821539,0.240567748" id="Line-3"></path>
                        </g>
                        <g id="south-end-left" transform="translate(2.791642, 13.636771) rotate(-300.000000) translate(-2.791642, -13.636771) translate(-0.178730, 11.942337)" stroke-linecap="round">
                            <path d="M5.78465565,3.00709685 L2.94644026,0.115276388" id="Line-2"></path>
                            <path d="M1.95399252e-14,3.13238821 L2.83821539,0.240567748" id="Line-3"></path>
                        </g>
                        <g id="south-end-right" transform="translate(16.768572, 13.641009) rotate(-60.000000) translate(-16.768572, -13.641009) translate(13.798201, 11.946575)" stroke-linecap="round">
                            <path d="M5.78465565,3.00709685 L2.94644026,0.115276388" id="Line-2"></path>
                            <path d="M-9.1038288e-15,3.13238821 L2.83821539,0.240567748" id="Line-3"></path>
                        </g>
                    </g>
                    <g id="Snow--x-small1-6" transform="translate(-0.061776, 0.297501)">
                        <path d="M6.46033911,7.70873029 L9.74965004,5.58372841 L13.038961,7.6902885 L13.038961,11.4833852 L9.74965004,13.3966021 L6.46033911,11.4833852 L6.46033911,7.70873029 Z" id="Path-93" fill-opacity="0.1" fill="#FFFFFF"></path>
                        <path d="M9.75979205,0.120283874 L9.75979205,19.3657037" id="Line" stroke-linecap="round"></path>
                        <path d="M0.354162591,9.31938536 L19.2428341,9.31938536" id="Line" stroke-linecap="round" transform="translate(9.798498, 9.742994) rotate(-30.000000) translate(-9.798498, -9.742994) "></path>
                        <path d="M1.67849076,4.70718606 L18.0365601,14.329896" id="Line-2" stroke-linecap="round"></path>
                        <g id="north-end" transform="translate(6.847143, 0.000000)" stroke-linecap="round">
                            <path d="M2.95135492,3.00709685 L0.113139534,0.115276388" id="Line"></path>
                            <path d="M3.06940912,2.89182046 L5.90762451,0" id="Line-2"></path>
                        </g>
                        <g id="north-end-2" transform="translate(3.017321, 5.529389) rotate(-58.000000) translate(-3.017321, -5.529389) translate(0.046950, 3.834956)" stroke-linecap="round">
                            <path d="M2.95135492,3.00709685 L0.113139534,0.115276388" id="Line"></path>
                            <path d="M3.06940912,2.89182046 L5.90762451,-2.33146835e-14" id="Line-2"></path>
                        </g>
                        <g id="north-end-right" transform="translate(16.536194, 5.549795) rotate(-300.000000) translate(-16.536194, -5.549795) translate(13.565822, 3.855361)" stroke-linecap="round">
                            <path d="M2.95135492,3.00709685 L0.113139534,0.115276388" id="Line"></path>
                            <path d="M3.06940912,2.89182046 L5.90762451,1.95399252e-14" id="Line-2"></path>
                        </g>
                        <g id="south-end" transform="translate(6.847143, 16.358607)" stroke-linecap="round">
                            <path d="M5.78465565,3.00709685 L2.94644026,0.115276388" id="Line-2"></path>
                            <path d="M0,3.13238821 L2.83821539,0.240567748" id="Line-3"></path>
                        </g>
                        <g id="south-end-left" transform="translate(2.791642, 13.636771) rotate(-300.000000) translate(-2.791642, -13.636771) translate(-0.178730, 11.942337)" stroke-linecap="round">
                            <path d="M5.78465565,3.00709685 L2.94644026,0.115276388" id="Line-2"></path>
                            <path d="M1.95399252e-14,3.13238821 L2.83821539,0.240567748" id="Line-3"></path>
                        </g>
                        <g id="south-end-right" transform="translate(16.768572, 13.641009) rotate(-60.000000) translate(-16.768572, -13.641009) translate(13.798201, 11.946575)" stroke-linecap="round">
                            <path d="M5.78465565,3.00709685 L2.94644026,0.115276388" id="Line-2"></path>
                            <path d="M-9.1038288e-15,3.13238821 L2.83821539,0.240567748" id="Line-3"></path>
                        </g>
                    </g>
                </g>
                <g id="Snow-Row2" transform="translate(28.000000, 131.000000)" sketch:type="MSShapeGroup">
                    <g id="Snow--x-small1-6" transform="translate(156.507854, 0.297501)">
                        <path d="M6.46033911,7.70873029 L9.74965004,5.58372841 L13.038961,7.6902885 L13.038961,11.4833852 L9.74965004,13.3966021 L6.46033911,11.4833852 L6.46033911,7.70873029 Z" id="Path-93" fill-opacity="0.1" fill="#FFFFFF"></path>
                        <path d="M9.75979205,0.120283874 L9.75979205,19.3657037" id="Line" stroke-linecap="round"></path>
                        <path d="M0.354162591,9.31938536 L19.2428341,9.31938536" id="Line" stroke-linecap="round" transform="translate(9.798498, 9.742994) rotate(-30.000000) translate(-9.798498, -9.742994) "></path>
                        <path d="M1.67849076,4.70718606 L18.0365601,14.329896" id="Line-2" stroke-linecap="round"></path>
                        <g id="north-end" transform="translate(6.847143, 0.000000)" stroke-linecap="round">
                            <path d="M2.95135492,3.00709685 L0.113139534,0.115276388" id="Line"></path>
                            <path d="M3.06940912,2.89182046 L5.90762451,0" id="Line-2"></path>
                        </g>
                        <g id="north-end-2" transform="translate(3.017321, 5.529389) rotate(-58.000000) translate(-3.017321, -5.529389) translate(0.046950, 3.834956)" stroke-linecap="round">
                            <path d="M2.95135492,3.00709685 L0.113139534,0.115276388" id="Line"></path>
                            <path d="M3.06940912,2.89182046 L5.90762451,-2.33146835e-14" id="Line-2"></path>
                        </g>
                        <g id="north-end-right" transform="translate(16.536194, 5.549795) rotate(-300.000000) translate(-16.536194, -5.549795) translate(13.565822, 3.855361)" stroke-linecap="round">
                            <path d="M2.95135492,3.00709685 L0.113139534,0.115276388" id="Line"></path>
                            <path d="M3.06940912,2.89182046 L5.90762451,1.95399252e-14" id="Line-2"></path>
                        </g>
                        <g id="south-end" transform="translate(6.847143, 16.358607)" stroke-linecap="round">
                            <path d="M5.78465565,3.00709685 L2.94644026,0.115276388" id="Line-2"></path>
                            <path d="M0,3.13238821 L2.83821539,0.240567748" id="Line-3"></path>
                        </g>
                        <g id="south-end-left" transform="translate(2.791642, 13.636771) rotate(-300.000000) translate(-2.791642, -13.636771) translate(-0.178730, 11.942337)" stroke-linecap="round">
                            <path d="M5.78465565,3.00709685 L2.94644026,0.115276388" id="Line-2"></path>
                            <path d="M1.95399252e-14,3.13238821 L2.83821539,0.240567748" id="Line-3"></path>
                        </g>
                        <g id="south-end-right" transform="translate(16.768572, 13.641009) rotate(-60.000000) translate(-16.768572, -13.641009) translate(13.798201, 11.946575)" stroke-linecap="round">
                            <path d="M5.78465565,3.00709685 L2.94644026,0.115276388" id="Line-2"></path>
                            <path d="M-9.1038288e-15,3.13238821 L2.83821539,0.240567748" id="Line-3"></path>
                        </g>
                    </g>
                    <g id="Snow--x-small1-6" transform="translate(114.210526, 0.297501)">
                        <path d="M6.46033911,7.70873029 L9.74965004,5.58372841 L13.038961,7.6902885 L13.038961,11.4833852 L9.74965004,13.3966021 L6.46033911,11.4833852 L6.46033911,7.70873029 Z" id="Path-93" fill-opacity="0.1" fill="#FFFFFF"></path>
                        <path d="M9.75979205,0.120283874 L9.75979205,19.3657037" id="Line" stroke-linecap="round"></path>
                        <path d="M0.354162591,9.31938536 L19.2428341,9.31938536" id="Line" stroke-linecap="round" transform="translate(9.798498, 9.742994) rotate(-30.000000) translate(-9.798498, -9.742994) "></path>
                        <path d="M1.67849076,4.70718606 L18.0365601,14.329896" id="Line-2" stroke-linecap="round"></path>
                        <g id="north-end" transform="translate(6.847143, 0.000000)" stroke-linecap="round">
                            <path d="M2.95135492,3.00709685 L0.113139534,0.115276388" id="Line"></path>
                            <path d="M3.06940912,2.89182046 L5.90762451,0" id="Line-2"></path>
                        </g>
                        <g id="north-end-2" transform="translate(3.017321, 5.529389) rotate(-58.000000) translate(-3.017321, -5.529389) translate(0.046950, 3.834956)" stroke-linecap="round">
                            <path d="M2.95135492,3.00709685 L0.113139534,0.115276388" id="Line"></path>
                            <path d="M3.06940912,2.89182046 L5.90762451,-2.33146835e-14" id="Line-2"></path>
                        </g>
                        <g id="north-end-right" transform="translate(16.536194, 5.549795) rotate(-300.000000) translate(-16.536194, -5.549795) translate(13.565822, 3.855361)" stroke-linecap="round">
                            <path d="M2.95135492,3.00709685 L0.113139534,0.115276388" id="Line"></path>
                            <path d="M3.06940912,2.89182046 L5.90762451,1.95399252e-14" id="Line-2"></path>
                        </g>
                        <g id="south-end" transform="translate(6.847143, 16.358607)" stroke-linecap="round">
                            <path d="M5.78465565,3.00709685 L2.94644026,0.115276388" id="Line-2"></path>
                            <path d="M0,3.13238821 L2.83821539,0.240567748" id="Line-3"></path>
                        </g>
                        <g id="south-end-left" transform="translate(2.791642, 13.636771) rotate(-300.000000) translate(-2.791642, -13.636771) translate(-0.178730, 11.942337)" stroke-linecap="round">
                            <path d="M5.78465565,3.00709685 L2.94644026,0.115276388" id="Line-2"></path>
                            <path d="M1.95399252e-14,3.13238821 L2.83821539,0.240567748" id="Line-3"></path>
                        </g>
                        <g id="south-end-right" transform="translate(16.768572, 13.641009) rotate(-60.000000) translate(-16.768572, -13.641009) translate(13.798201, 11.946575)" stroke-linecap="round">
                            <path d="M5.78465565,3.00709685 L2.94644026,0.115276388" id="Line-2"></path>
                            <path d="M-9.1038288e-15,3.13238821 L2.83821539,0.240567748" id="Line-3"></path>
                        </g>
                    </g>
                    <g id="Snow--x-small1-6" transform="translate(74.990856, 0.297501)">
                        <path d="M6.46033911,7.70873029 L9.74965004,5.58372841 L13.038961,7.6902885 L13.038961,11.4833852 L9.74965004,13.3966021 L6.46033911,11.4833852 L6.46033911,7.70873029 Z" id="Path-93" fill-opacity="0.1" fill="#FFFFFF"></path>
                        <path d="M9.75979205,0.120283874 L9.75979205,19.3657037" id="Line" stroke-linecap="round"></path>
                        <path d="M0.354162591,9.31938536 L19.2428341,9.31938536" id="Line" stroke-linecap="round" transform="translate(9.798498, 9.742994) rotate(-30.000000) translate(-9.798498, -9.742994) "></path>
                        <path d="M1.67849076,4.70718606 L18.0365601,14.329896" id="Line-2" stroke-linecap="round"></path>
                        <g id="north-end" transform="translate(6.847143, 0.000000)" stroke-linecap="round">
                            <path d="M2.95135492,3.00709685 L0.113139534,0.115276388" id="Line"></path>
                            <path d="M3.06940912,2.89182046 L5.90762451,0" id="Line-2"></path>
                        </g>
                        <g id="north-end-2" transform="translate(3.017321, 5.529389) rotate(-58.000000) translate(-3.017321, -5.529389) translate(0.046950, 3.834956)" stroke-linecap="round">
                            <path d="M2.95135492,3.00709685 L0.113139534,0.115276388" id="Line"></path>
                            <path d="M3.06940912,2.89182046 L5.90762451,-2.33146835e-14" id="Line-2"></path>
                        </g>
                        <g id="north-end-right" transform="translate(16.536194, 5.549795) rotate(-300.000000) translate(-16.536194, -5.549795) translate(13.565822, 3.855361)" stroke-linecap="round">
                            <path d="M2.95135492,3.00709685 L0.113139534,0.115276388" id="Line"></path>
                            <path d="M3.06940912,2.89182046 L5.90762451,1.95399252e-14" id="Line-2"></path>
                        </g>
                        <g id="south-end" transform="translate(6.847143, 16.358607)" stroke-linecap="round">
                            <path d="M5.78465565,3.00709685 L2.94644026,0.115276388" id="Line-2"></path>
                            <path d="M0,3.13238821 L2.83821539,0.240567748" id="Line-3"></path>
                        </g>
                        <g id="south-end-left" transform="translate(2.791642, 13.636771) rotate(-300.000000) translate(-2.791642, -13.636771) translate(-0.178730, 11.942337)" stroke-linecap="round">
                            <path d="M5.78465565,3.00709685 L2.94644026,0.115276388" id="Line-2"></path>
                            <path d="M1.95399252e-14,3.13238821 L2.83821539,0.240567748" id="Line-3"></path>
                        </g>
                        <g id="south-end-right" transform="translate(16.768572, 13.641009) rotate(-60.000000) translate(-16.768572, -13.641009) translate(13.798201, 11.946575)" stroke-linecap="round">
                            <path d="M5.78465565,3.00709685 L2.94644026,0.115276388" id="Line-2"></path>
                            <path d="M-9.1038288e-15,3.13238821 L2.83821539,0.240567748" id="Line-3"></path>
                        </g>
                    </g>
                    <g id="Snow--x-small1-6" transform="translate(35.709410, 0.297501)">
                        <path d="M6.46033911,7.70873029 L9.74965004,5.58372841 L13.038961,7.6902885 L13.038961,11.4833852 L9.74965004,13.3966021 L6.46033911,11.4833852 L6.46033911,7.70873029 Z" id="Path-93" fill-opacity="0.1" fill="#FFFFFF"></path>
                        <path d="M9.75979205,0.120283874 L9.75979205,19.3657037" id="Line" stroke-linecap="round"></path>
                        <path d="M0.354162591,9.31938536 L19.2428341,9.31938536" id="Line" stroke-linecap="round" transform="translate(9.798498, 9.742994) rotate(-30.000000) translate(-9.798498, -9.742994) "></path>
                        <path d="M1.67849076,4.70718606 L18.0365601,14.329896" id="Line-2" stroke-linecap="round"></path>
                        <g id="north-end" transform="translate(6.847143, 0.000000)" stroke-linecap="round">
                            <path d="M2.95135492,3.00709685 L0.113139534,0.115276388" id="Line"></path>
                            <path d="M3.06940912,2.89182046 L5.90762451,0" id="Line-2"></path>
                        </g>
                        <g id="north-end-2" transform="translate(3.017321, 5.529389) rotate(-58.000000) translate(-3.017321, -5.529389) translate(0.046950, 3.834956)" stroke-linecap="round">
                            <path d="M2.95135492,3.00709685 L0.113139534,0.115276388" id="Line"></path>
                            <path d="M3.06940912,2.89182046 L5.90762451,-2.33146835e-14" id="Line-2"></path>
                        </g>
                        <g id="north-end-right" transform="translate(16.536194, 5.549795) rotate(-300.000000) translate(-16.536194, -5.549795) translate(13.565822, 3.855361)" stroke-linecap="round">
                            <path d="M2.95135492,3.00709685 L0.113139534,0.115276388" id="Line"></path>
                            <path d="M3.06940912,2.89182046 L5.90762451,1.95399252e-14" id="Line-2"></path>
                        </g>
                        <g id="south-end" transform="translate(6.847143, 16.358607)" stroke-linecap="round">
                            <path d="M5.78465565,3.00709685 L2.94644026,0.115276388" id="Line-2"></path>
                            <path d="M0,3.13238821 L2.83821539,0.240567748" id="Line-3"></path>
                        </g>
                        <g id="south-end-left" transform="translate(2.791642, 13.636771) rotate(-300.000000) translate(-2.791642, -13.636771) translate(-0.178730, 11.942337)" stroke-linecap="round">
                            <path d="M5.78465565,3.00709685 L2.94644026,0.115276388" id="Line-2"></path>
                            <path d="M1.95399252e-14,3.13238821 L2.83821539,0.240567748" id="Line-3"></path>
                        </g>
                        <g id="south-end-right" transform="translate(16.768572, 13.641009) rotate(-60.000000) translate(-16.768572, -13.641009) translate(13.798201, 11.946575)" stroke-linecap="round">
                            <path d="M5.78465565,3.00709685 L2.94644026,0.115276388" id="Line-2"></path>
                            <path d="M-9.1038288e-15,3.13238821 L2.83821539,0.240567748" id="Line-3"></path>
                        </g>
                    </g>
                    <g id="Snow--x-small1-6" transform="translate(-0.061776, 0.297501)">
                        <path d="M6.46033911,7.70873029 L9.74965004,5.58372841 L13.038961,7.6902885 L13.038961,11.4833852 L9.74965004,13.3966021 L6.46033911,11.4833852 L6.46033911,7.70873029 Z" id="Path-93" fill-opacity="0.1" fill="#FFFFFF"></path>
                        <path d="M9.75979205,0.120283874 L9.75979205,19.3657037" id="Line" stroke-linecap="round"></path>
                        <path d="M0.354162591,9.31938536 L19.2428341,9.31938536" id="Line" stroke-linecap="round" transform="translate(9.798498, 9.742994) rotate(-30.000000) translate(-9.798498, -9.742994) "></path>
                        <path d="M1.67849076,4.70718606 L18.0365601,14.329896" id="Line-2" stroke-linecap="round"></path>
                        <g id="north-end" transform="translate(6.847143, 0.000000)" stroke-linecap="round">
                            <path d="M2.95135492,3.00709685 L0.113139534,0.115276388" id="Line"></path>
                            <path d="M3.06940912,2.89182046 L5.90762451,0" id="Line-2"></path>
                        </g>
                        <g id="north-end-2" transform="translate(3.017321, 5.529389) rotate(-58.000000) translate(-3.017321, -5.529389) translate(0.046950, 3.834956)" stroke-linecap="round">
                            <path d="M2.95135492,3.00709685 L0.113139534,0.115276388" id="Line"></path>
                            <path d="M3.06940912,2.89182046 L5.90762451,-2.33146835e-14" id="Line-2"></path>
                        </g>
                        <g id="north-end-right" transform="translate(16.536194, 5.549795) rotate(-300.000000) translate(-16.536194, -5.549795) translate(13.565822, 3.855361)" stroke-linecap="round">
                            <path d="M2.95135492,3.00709685 L0.113139534,0.115276388" id="Line"></path>
                            <path d="M3.06940912,2.89182046 L5.90762451,1.95399252e-14" id="Line-2"></path>
                        </g>
                        <g id="south-end" transform="translate(6.847143, 16.358607)" stroke-linecap="round">
                            <path d="M5.78465565,3.00709685 L2.94644026,0.115276388" id="Line-2"></path>
                            <path d="M0,3.13238821 L2.83821539,0.240567748" id="Line-3"></path>
                        </g>
                        <g id="south-end-left" transform="translate(2.791642, 13.636771) rotate(-300.000000) translate(-2.791642, -13.636771) translate(-0.178730, 11.942337)" stroke-linecap="round">
                            <path d="M5.78465565,3.00709685 L2.94644026,0.115276388" id="Line-2"></path>
                            <path d="M1.95399252e-14,3.13238821 L2.83821539,0.240567748" id="Line-3"></path>
                        </g>
                        <g id="south-end-right" transform="translate(16.768572, 13.641009) rotate(-60.000000) translate(-16.768572, -13.641009) translate(13.798201, 11.946575)" stroke-linecap="round">
                            <path d="M5.78465565,3.00709685 L2.94644026,0.115276388" id="Line-2"></path>
                            <path d="M-9.1038288e-15,3.13238821 L2.83821539,0.240567748" id="Line-3"></path>
                        </g>
                    </g>
                </g>
            </g>
        </g>
    </g>
</svg>