<?xml version="1.0" encoding="UTF-8" standalone="no"?>
<svg width="300px" height="200px" viewBox="0 0 300 200" version="1.1" xmlns="http://www.w3.org/2000/svg" xmlns:xlink="http://www.w3.org/1999/xlink" xmlns:sketch="http://www.bohemiancoding.com/sketch/ns">
    <!-- Generator: Sketch 3.0.4 (8054) - http://www.bohemiancoding.com/sketch -->
    <title>Blizzard</title>
    <desc>Created with Sketch.</desc>
    <defs></defs>
    <g id="Icons" stroke="none" stroke-width="1" fill="none" fill-rule="evenodd" sketch:type="MSPage">
        <g id="Blizzard" sketch:type="MSArtboardGroup" stroke="#FFFFFF">
            <g id="Blizzard-2" sketch:type="MSLayerGroup" transform="translate(24.000000, 10.000000)">
                <path d="M164.529448,97.457213 C157.418239,106.639824 146.314463,112.580795 133.817477,112.683548 L133.817477,112.684903 L29.0047733,112.684903 C12.9858793,112.684903 0,99.7129056 0,83.7111365 C0,67.7093674 12.9858793,54.7373705 29.0047733,54.7373705 C31.7528023,54.7373705 34.4115723,55.1191252 36.9308358,55.8324409 C40.8024091,32.7873291 60.8667341,15.2276895 85.0367218,15.2276895 C93.9229346,15.2276895 102.254185,17.6012274 109.429793,21.7482661 C105.707484,27.3302217 103.107312,33.7228973 101.951162,40.6047513 C99.4318984,39.8914357 96.7731284,39.509681 94.0250994,39.509681 C78.0062054,39.509681 65.0203261,52.4816779 65.0203261,68.483447 C65.0203261,84.4852161 78.0062054,97.457213 94.0250994,97.457213 L164.529448,97.457213 L164.529448,97.457213 Z" id="Cloud--back" stroke-width="7" fill-opacity="0.2" fill="#FFFFFF" sketch:type="MSShapeGroup"></path>
                <path d="M198.893107,97.1658037 C220.40327,96.988942 237.785871,79.5156253 237.785871,57.9867247 C237.785871,36.3479687 220.225421,18.806291 198.563507,18.806291 C195.482152,18.806291 192.483787,19.1612361 189.607151,19.8324288 C180.740882,7.63856032 166.353521,-0.290054754 150.112352,-0.290054754 C125.942364,-0.290054754 105.878039,17.2695848 102.006466,40.3146966 C99.4872026,39.6013809 96.8284326,39.2196262 94.0804036,39.2196262 C78.0615096,39.2196262 65.0756303,52.1916231 65.0756303,68.1933922 C65.0756303,84.1951614 78.0615096,97.1671583 94.0804036,97.1671583 L198.893107,97.1671583 L198.893107,97.1658037 Z" id="Cloud--front" stroke-width="7" fill-opacity="0.2" fill="#FFFFFF" sketch:type="MSShapeGroup"></path>
                <g id="Snow-Row1" transform="translate(81.852941, 159.173554)" sketch:type="MSShapeGroup">
                    <g id="Snow--x-small3" transform="translate(28.276471, 0.000000)">
                        <path d="M5.91068209,7.06201784 L8.92013265,5.11528984 L11.9295832,7.04512321 L11.9295832,10.5200037 L8.92013265,12.2727141 L5.91068209,10.5200037 L5.91068209,7.06201784 Z" id="Path-93" fill="#FFFFFF"></path>
                        <path d="M8.92941176,0.110192837 L8.92941176,17.7410468" id="Line" stroke-linecap="round"></path>
                        <path d="M0.324029814,8.53754941 L17.6056199,8.53754941" id="Line" stroke-linecap="round" transform="translate(8.964825, 8.925620) rotate(-30.000000) translate(-8.964825, -8.925620) "></path>
                        <path d="M1.53568181,4.3122837 L16.5019778,13.1277107" id="Line-2" stroke-linecap="round"></path>
                        <g id="north-end" transform="translate(6.264576, 0.000000)" stroke-linecap="round">
                            <path d="M2.70024845,2.75482094 L0.103513423,0.105605447" id="Line"></path>
                            <path d="M2.80825839,2.64921549 L5.40499342,0" id="Line-2"></path>
                        </g>
                        <g id="north-end-2" transform="translate(2.760602, 5.065510) rotate(-58.000000) translate(-2.760602, -5.065510) translate(0.042955, 3.513228)" stroke-linecap="round">
                            <path d="M2.70024845,2.75482094 L0.103513423,0.105605447" id="Line"></path>
                            <path d="M2.80825839,2.64921549 L5.40499342,-2.13162821e-14" id="Line-2"></path>
                        </g>
                        <g id="north-end-right" transform="translate(15.129265, 5.084203) rotate(-300.000000) translate(-15.129265, -5.084203) translate(12.411618, 3.531921)" stroke-linecap="round">
                            <path d="M2.70024845,2.75482094 L0.103513423,0.105605447" id="Line"></path>
                            <path d="M2.80825839,2.64921549 L5.40499342,1.7985613e-14" id="Line-2"></path>
                        </g>
                        <g id="south-end" transform="translate(6.264576, 14.986226)" stroke-linecap="round">
                            <path d="M5.29248697,2.75482094 L2.69575194,0.105605447" id="Line-2"></path>
                            <path d="M0,2.86960116 L2.59673503,0.220385675" id="Line-3"></path>
                        </g>
                        <g id="south-end-left" transform="translate(2.554124, 12.492734) rotate(-300.000000) translate(-2.554124, -12.492734) translate(-0.163523, 10.940453)" stroke-linecap="round">
                            <path d="M5.29248697,2.75482094 L2.69575194,0.105605447" id="Line-2"></path>
                            <path d="M1.7985613e-14,2.86960116 L2.59673503,0.220385675" id="Line-3"></path>
                        </g>
                        <g id="south-end-right" transform="translate(15.341873, 12.496617) rotate(-60.000000) translate(-15.341873, -12.496617) translate(12.624226, 10.944335)" stroke-linecap="round">
                            <path d="M5.29248697,2.75482094 L2.69575194,0.105605447" id="Line-2"></path>
                            <path d="M-8.21565038e-15,2.86960116 L2.59673503,0.220385675" id="Line-3"></path>
                        </g>
                    </g>
                    <g id="Snow--x-small2" transform="translate(56.552941, 0.000000)">
                        <path d="M5.91068209,7.06201784 L8.92013265,5.11528984 L11.9295832,7.04512321 L11.9295832,10.5200037 L8.92013265,12.2727141 L5.91068209,10.5200037 L5.91068209,7.06201784 Z" id="Path-93" fill="#FFFFFF"></path>
                        <path d="M8.92941176,0.110192837 L8.92941176,17.7410468" id="Line" stroke-linecap="round"></path>
                        <path d="M0.324029814,8.53754941 L17.6056199,8.53754941" id="Line" stroke-linecap="round" transform="translate(8.964825, 8.925620) rotate(-30.000000) translate(-8.964825, -8.925620) "></path>
                        <path d="M1.53568181,4.3122837 L16.5019778,13.1277107" id="Line-2" stroke-linecap="round"></path>
                        <g id="north-end" transform="translate(6.264576, 0.000000)" stroke-linecap="round">
                            <path d="M2.70024845,2.75482094 L0.103513423,0.105605447" id="Line"></path>
                            <path d="M2.80825839,2.64921549 L5.40499342,0" id="Line-2"></path>
                        </g>
                        <g id="north-end-2" transform="translate(2.760602, 5.065510) rotate(-58.000000) translate(-2.760602, -5.065510) translate(0.042955, 3.513228)" stroke-linecap="round">
                            <path d="M2.70024845,2.75482094 L0.103513423,0.105605447" id="Line"></path>
                            <path d="M2.80825839,2.64921549 L5.40499342,-2.13162821e-14" id="Line-2"></path>
                        </g>
                        <g id="north-end-right" transform="translate(15.129265, 5.084203) rotate(-300.000000) translate(-15.129265, -5.084203) translate(12.411618, 3.531921)" stroke-linecap="round">
                            <path d="M2.70024845,2.75482094 L0.103513423,0.105605447" id="Line"></path>
                            <path d="M2.80825839,2.64921549 L5.40499342,1.7985613e-14" id="Line-2"></path>
                        </g>
                        <g id="south-end" transform="translate(6.264576, 14.986226)" stroke-linecap="round">
                            <path d="M5.29248697,2.75482094 L2.69575194,0.105605447" id="Line-2"></path>
                            <path d="M0,2.86960116 L2.59673503,0.220385675" id="Line-3"></path>
                        </g>
                        <g id="south-end-left" transform="translate(2.554124, 12.492734) rotate(-300.000000) translate(-2.554124, -12.492734) translate(-0.163523, 10.940453)" stroke-linecap="round">
                            <path d="M5.29248697,2.75482094 L2.69575194,0.105605447" id="Line-2"></path>
                            <path d="M1.7985613e-14,2.86960116 L2.59673503,0.220385675" id="Line-3"></path>
                        </g>
                        <g id="south-end-right" transform="translate(15.341873, 12.496617) rotate(-60.000000) translate(-15.341873, -12.496617) translate(12.624226, 10.944335)" stroke-linecap="round">
                            <path d="M5.29248697,2.75482094 L2.69575194,0.105605447" id="Line-2"></path>
                            <path d="M-8.21565038e-15,2.86960116 L2.59673503,0.220385675" id="Line-3"></path>
                        </g>
                    </g>
                    <g id="Snow--x-small1">
                        <path d="M5.91068209,7.06201784 L8.92013265,5.11528984 L11.9295832,7.04512321 L11.9295832,10.5200037 L8.92013265,12.2727141 L5.91068209,10.5200037 L5.91068209,7.06201784 Z" id="Path-93" fill="#FFFFFF"></path>
                        <path d="M8.92941176,0.110192837 L8.92941176,17.7410468" id="Line" stroke-linecap="round"></path>
                        <path d="M0.324029814,8.53754941 L17.6056199,8.53754941" id="Line" stroke-linecap="round" transform="translate(8.964825, 8.925620) rotate(-30.000000) translate(-8.964825, -8.925620) "></path>
                        <path d="M1.53568181,4.3122837 L16.5019778,13.1277107" id="Line-2" stroke-linecap="round"></path>
                        <g id="north-end" transform="translate(6.264576, 0.000000)" stroke-linecap="round">
                            <path d="M2.70024845,2.75482094 L0.103513423,0.105605447" id="Line"></path>
                            <path d="M2.80825839,2.64921549 L5.40499342,0" id="Line-2"></path>
                        </g>
                        <g id="north-end-2" transform="translate(2.760602, 5.065510) rotate(-58.000000) translate(-2.760602, -5.065510) translate(0.042955, 3.513228)" stroke-linecap="round">
                            <path d="M2.70024845,2.75482094 L0.103513423,0.105605447" id="Line"></path>
                            <path d="M2.80825839,2.64921549 L5.40499342,-2.13162821e-14" id="Line-2"></path>
                        </g>
                        <g id="north-end-right" transform="translate(15.129265, 5.084203) rotate(-300.000000) translate(-15.129265, -5.084203) translate(12.411618, 3.531921)" stroke-linecap="round">
                            <path d="M2.70024845,2.75482094 L0.103513423,0.105605447" id="Line"></path>
                            <path d="M2.80825839,2.64921549 L5.40499342,1.7985613e-14" id="Line-2"></path>
                        </g>
                        <g id="south-end" transform="translate(6.264576, 14.986226)" stroke-linecap="round">
                            <path d="M5.29248697,2.75482094 L2.69575194,0.105605447" id="Line-2"></path>
                            <path d="M0,2.86960116 L2.59673503,0.220385675" id="Line-3"></path>
                        </g>
                        <g id="south-end-left" transform="translate(2.554124, 12.492734) rotate(-300.000000) translate(-2.554124, -12.492734) translate(-0.163523, 10.940453)" stroke-linecap="round">
                            <path d="M5.29248697,2.75482094 L2.69575194,0.105605447" id="Line-2"></path>
                            <path d="M1.7985613e-14,2.86960116 L2.59673503,0.220385675" id="Line-3"></path>
                        </g>
                        <g id="south-end-right" transform="translate(15.341873, 12.496617) rotate(-60.000000) translate(-15.341873, -12.496617) translate(12.624226, 10.944335)" stroke-linecap="round">
                            <path d="M5.29248697,2.75482094 L2.69575194,0.105605447" id="Line-2"></path>
                            <path d="M-8.21565038e-15,2.86960116 L2.59673503,0.220385675" id="Line-3"></path>
                        </g>
                    </g>
                </g>
                <g id="Wind-2" transform="translate(34.229412, 95.206612)" stroke-width="7" sketch:type="MSShapeGroup" stroke-linecap="round">
                    <path d="M35.9232968,84.4825035 L133.737707,84.4825026 C133.737707,84.4825026 150.921447,85.5459065 150.921447,69.6870965 C150.921447,53.8282864 132.954349,54.8916903 132.954349,54.8916903" id="Path-576" transform="translate(93.014706, 69.917355) scale(1, -1) translate(-93.014706, -69.917355) "></path>
                    <path d="M17.4213637,42.3966942 L202.227777,42.3966942" id="Line"></path>
                    <path d="M0.085747932,29.4411812 L202.19653,29.4411803 C202.19653,29.4411803 219.380271,30.5045842 219.380271,14.6457741 C219.380271,-1.2130359 201.413172,-0.149631973 201.413172,-0.149631973" id="Path-575"></path>
                </g>
            </g>
        </g>
    </g>
</svg>