<svg version="1.1" id="Layer_1" xmlns="http://www.w3.org/2000/svg" xmlns:xlink="http://www.w3.org/1999/xlink" x="0px" y="0px"
	 width="350px" height="200px" viewBox="0 0 350 200" enable-background="new 0 0 350 200" xml:space="preserve">
<g class="clouds">
		<path fill="#FFFFFF" fill-opacity="0.5" stroke="#333333" stroke-width="6" stroke-linecap="round" stroke-linejoin="round" stroke-miterlimit="10" d="
		M286.904,74.814c-6.186,0-12.119,1.083-17.627,3.058c-11.359-24.173-35.915-40.915-64.393-40.915
		c-34.397,0-63.088,24.418-69.692,56.867c-4.904-1.879-10.207-2.949-15.771-2.949c-24.392,0-44.166,19.77-44.166,44.163
		s19.774,44.166,44.166,44.166h167.482c28.828,0,52.195-23.371,52.195-52.197C339.1,98.183,315.732,74.814,286.904,74.814z"/>
	<path fill="none" stroke="#333333" stroke-width="6" stroke-linecap="round" stroke-linejoin="round" stroke-miterlimit="10" d="
		M179.925,22.368c-11.277-7.523-24.821-11.91-39.396-11.91c-34.397,0-63.089,24.419-69.692,56.867
		c-4.904-1.879-10.206-2.949-15.77-2.949c-24.392,0-44.167,19.77-44.167,44.163c0,24.391,19.774,44.166,44.167,44.166h4.811"/>
</g>
</svg>
