<?xml version="1.0" encoding="utf-8"?>
<!-- Generator: Adobe Illustrator 16.0.0, SVG Export Plug-In . SVG Version: 6.00 Build 0)  -->
<!DOCTYPE svg PUBLIC "-//W3C//DTD SVG 1.1//EN" "http://www.w3.org/Graphics/SVG/1.1/DTD/svg11.dtd">
<svg version="1.1" id="Layer_1" xmlns="http://www.w3.org/2000/svg" xmlns:xlink="http://www.w3.org/1999/xlink" x="0px" y="0px"
	 width="350px" height="200px" viewBox="0 0 350 200" enable-background="new 0 0 350 200" xml:space="preserve">
<path fill="none" stroke="#4D4D4D" stroke-width="6" stroke-linecap="round" stroke-linejoin="round" stroke-miterlimit="10" d="
	M249.687,55.131c-3.261,0-6.433,0.297-9.484,0.995c-0.001-0.001-0.001-0.003-0.002-0.004c-20.254,7.769-25.782,26.494-25.782,26.494
	s5.528-18.726,25.782-26.494c-8.857-23.165-31.286-39.612-57.567-39.612c-29.953,0-54.911,21.388-60.468,49.71
	c0,0,8.168,3.946,9.835,6.279c-1.667-2.333-9.835-6.279-9.835-6.279c-4.875-2.257-10.295-3.505-16.021-3.505
	C85.081,62.716,68,79.838,68,100.901s17.081,38.429,38.144,38.429c13.62,0,59.159,1.17,76.489,1.17h67.054
	c23.392,0,42.359-19.334,42.359-42.727C292.046,74.381,273.078,55.131,249.687,55.131z"/>
</svg>
