<?xml version="1.0" encoding="utf-8"?>
<!-- Generator: Adobe Illustrator 16.0.0, SVG Export Plug-In . SVG Version: 6.00 Build 0)  -->
<!DOCTYPE svg PUBLIC "-//W3C//DTD SVG 1.1//EN" "http://www.w3.org/Graphics/SVG/1.1/DTD/svg11.dtd">
<svg version="1.1" id="Layer_1" xmlns="http://www.w3.org/2000/svg" xmlns:xlink="http://www.w3.org/1999/xlink" x="0px" y="0px"
	 width="350px" height="200px" viewBox="0 0 350 200" enable-background="new 0 0 350 200" xml:space="preserve">
<path fill="none" stroke="#4D4D4D" stroke-width="6" stroke-linecap="round" stroke-linejoin="round" stroke-miterlimit="10" d="
	M288.688,55.131c-3.262,0-6.434,0.297-9.484,0.996c-0.001-0.002-0.001-0.004-0.002-0.005c-20.254,7.769-25.782,26.494-25.782,26.494
	s5.528-18.726,25.782-26.494c-8.857-23.165-31.286-39.612-57.567-39.612c-29.952,0-54.911,21.388-60.469,49.71
	c0,0,8.169,3.946,9.836,6.279c-1.667-2.333-9.836-6.279-9.836-6.279c-4.874-2.257-10.295-3.505-16.02-3.505
	C124.08,62.716,107,79.838,107,100.9c0,21.063,17.08,38.43,38.145,38.43c13.619,0,59.158,1.17,76.488,1.17h67.055
	c23.392,0,42.358-19.334,42.358-42.727S312.078,55.131,288.688,55.131z"/>
<path fill="none" stroke="#4D4D4D" stroke-width="6" stroke-linecap="round" stroke-linejoin="round" stroke-miterlimit="10" d="
	M166.177,51.264c-10.394-7.999-23.412-12.754-37.544-12.754c-29.953,0-54.911,21.388-60.469,49.71c0,0,8.169,3.946,9.836,6.279
	c-1.667-2.333-9.836-6.279-9.836-6.279c-4.874-2.257-10.295-3.505-16.02-3.505C31.08,84.716,14,101.838,14,122.9
	c0,21.063,17.08,38.43,38.145,38.43c13.619,0,59.158,1.17,76.488,1.17h67.055c15.896,0,29.75-8.93,36.996-21.995"/>
</svg>
