<?xml version="1.0" encoding="UTF-8" standalone="no"?>
<svg width="300px" height="200px" viewBox="0 0 300 200" version="1.1" xmlns="http://www.w3.org/2000/svg" xmlns:xlink="http://www.w3.org/1999/xlink" xmlns:sketch="http://www.bohemiancoding.com/sketch/ns">
    <!-- Generator: Sketch 3.0.4 (8054) - http://www.bohemiancoding.com/sketch -->
    <title>Lightning_1</title>
    <desc>Created with Sketch.</desc>
    <defs></defs>
    <g id="Icons" stroke="none" stroke-width="1" fill="none" fill-rule="evenodd" sketch:type="MSPage">
        <g id="Lightning_1" sketch:type="MSArtboardGroup" stroke="#FFFFFF" fill="#FFFFFF">
            <g id="Lightning-Storm-3" sketch:type="MSLayerGroup" transform="translate(56.000000, 14.000000)">
                <path d="M151.037065,110.651742 C175.385415,110.450995 195.061587,90.6179069 195.061587,66.1815279 C195.061587,41.6204576 175.184099,21.7097761 150.663976,21.7097761 C147.176046,21.7097761 143.782058,22.1126565 140.525861,22.8744938 C130.48972,9.03384319 114.204,0.0344685243 95.8198672,0.0344685243 C68.4607379,0.0344685243 45.7489985,19.9655377 41.3665852,46.1228921 C38.5149141,45.3132432 35.5053291,44.8799325 32.3947077,44.8799325 C14.2621792,44.8799325 -0.43713953,59.6037978 -0.43713953,77.7666061 C-0.43713953,95.9294144 14.2621792,110.65328 32.3947077,110.65328 L151.037065,110.65328 L151.037065,110.651742 Z" id="Cloud--front" stroke-width="7" fill-opacity="0.2" sketch:type="MSShapeGroup"></path>
                <path d="M99.8896169,109.868421 L80.7232671,128.993634 L100.069477,128.993634 L61.5025621,167.477772 L133.156732,126.419069 L116.264586,126.419069 L132.021265,110.696208" id="The-Ligntning" stroke-width="5" fill-opacity="0.1" sketch:type="MSShapeGroup"></path>
            </g>
        </g>
    </g>
</svg>