<svg version="1.1" id="Layer_1" xmlns="http://www.w3.org/2000/svg" xmlns:xlink="http://www.w3.org/1999/xlink" x="0px" y="0px"
	 width="360px" height="200px" viewBox="0 0 360 200" enable-background="new 0 0 360 200" xml:space="preserve">
<linearGradient id="SVGID_1_" gradientUnits="userSpaceOnUse" x1="6.1802" y1="98.7856" x2="347.2266" y2="98.7856">
	<stop  offset="0" style="stop-color:#242c3c"/>
	<stop  offset="1" style="stop-color:#313c50"/>
</linearGradient>
<path fill="url(#SVGID_1_)" d="M301.867,79.202c-2.717,0-5.236,0.19-7.633,0.58c-10.094-23.55-33.658-39.201-59.421-39.201
	c-23.935,0-45.361,13.229-56.518,33.288c-10.758-7.39-23.293-11.288-36.482-11.288c-1.362,0-2.714,0.058-4.06,0.142
	c-0.06-0.084-0.104-0.174-0.171-0.255c-0.31-0.374-0.637-0.728-0.955-1.092l24.109-24.11c1.562-1.562,1.562-4.095,0-5.656
	c-1.562-1.562-4.096-1.562-5.656,0l-24.24,24.15C122.214,48.46,112,44.098,100,43.361V8.571c0-2.209-1.791-4-4-4s-4,1.791-4,4
	v34.875C81,44.41,70.519,48.92,62.353,55.86L38.147,31.61c-1.562-1.562-4.073-1.562-5.634,0c-1.562,1.562-1.551,4.095,0.011,5.656
	l24.224,24.432C49.39,70.146,44.669,81,43.852,93H10.18c-2.209,0-4,1.791-4,4s1.791,4,4,4h33.711c0.352,4,1.237,8.429,2.646,12.564
	c-13.262,6.845-22.357,20.58-22.357,36.516c0,22.844,18.457,41.375,41.145,41.375c6.371,0,19.815,0.445,34.048,0.719
	c16.335,0.314,33.226,0.826,42.44,0.826h67.054c15.792,0,30.446-9,38.697-22h54.303c25.012,0,45.359-20.727,45.359-45.941
	C347.227,99.892,326.879,79.202,301.867,79.202z M51.709,96.254c0-24.821,20.194-45.016,45.016-45.016
	c11.848,0,23.062,4.618,31.44,12.804c-23.612,5.117-42.865,23.234-48.967,47.132c-4.425-1.585-9.076-2.387-13.874-2.387
	c-3.937,0-7.741,0.568-11.349,1.606C52.473,105.85,51.709,101.103,51.709,96.254z M208.867,187h-67.054
	c-9.157,0-26.019-0.539-42.325-0.851c-14.263-0.274-27.734-0.64-34.163-0.64c-19.379,0-35.145-15.947-35.145-35.482
	c0-14.568,8.89-27.124,21.523-32.461c0.199-0.042,0.398-0.104,0.595-0.179c0.238-0.091,0.46-0.212,0.67-0.341
	c3.847-1.451,8.009-2.254,12.356-2.254c5.169,0,10.134,1.084,14.715,3.204c3.955,1.911,8.021,4.398,8.7,5.322
	c0.962,1.347,2.836,1.659,4.185,0.696c0.818-0.586,1.256-1.507,1.256-2.441c0.001-0.604-0.181-1.215-0.559-1.744
	c-0.042-0.058-0.085-0.116-0.131-0.174c-0.002-0.003-0.003-0.005-0.005-0.007c-1.619-2.067-5.882-4.511-8.719-5.991
	c6.214-26.25,29.85-45.074,57.046-45.074c12.25,0,23.882,3.697,33.793,10.714c-1.386,3.162-2.534,6.46-3.407,9.879
	c-4.425-1.585-9.076-2.387-13.874-2.387c-22.688,0-41.145,18.476-41.145,41.186c0,22.844,18.457,41.429,41.145,41.429
	c6.371,0,19.815,0.472,34.048,0.746c16.335,0.314,33.226,0.853,42.44,0.853h5.559C232.972,180,221.318,187,208.867,187z
	 M301.867,165h-67.054c-9.157,0-26.019-0.539-42.325-0.851c-14.263-0.274-27.734-0.64-34.163-0.64
	c-19.379,0-35.145-15.947-35.145-35.482c0-19.401,15.766-35.212,35.145-35.212c5.169,0,10.134,1.072,14.714,3.192
	c3.957,1.913,8.023,4.394,8.7,5.316c0.963,1.347,2.837,1.655,4.186,0.694c0.818-0.586,1.256-1.509,1.256-2.443
	c0.001-0.604-0.181-1.215-0.559-1.745c-0.027-0.037-0.055-0.076-0.084-0.114c-0.009-0.012-0.018-0.023-0.026-0.035
	c-0.007-0.009-0.014-0.018-0.021-0.026c-1.615-2.069-5.884-4.516-8.724-5.998c0.993-4.193,2.435-8.193,4.26-11.961
	c0.015-0.029,0.029-0.057,0.043-0.086c9.618-19.771,29.924-33.027,52.743-33.027c23.167,0,44.373,13.951,53.662,35.001
	c-19.092,8.748-24.521,26.471-24.754,27.256c-0.084,0.282-0.123,0.567-0.123,0.848c-0.002,1.297,0.844,2.493,2.15,2.879
	c1.59,0.472,3.258-0.438,3.727-2.027c0.051-0.173,5.283-17.245,23.75-24.453c2.652-0.594,5.482-0.882,8.643-0.882
	c21.703,0,39.359,17.998,39.359,39.857C341.227,146.964,323.57,165,301.867,165z"/>
</svg>
