<?xml version="1.0" encoding="UTF-8" standalone="no"?>
<svg width="300px" height="200px" viewBox="0 0 300 200" version="1.1" xmlns="http://www.w3.org/2000/svg" xmlns:xlink="http://www.w3.org/1999/xlink" xmlns:sketch="http://www.bohemiancoding.com/sketch/ns">
    <!-- Generator: Sketch 3.0.4 (8054) - http://www.bohemiancoding.com/sketch -->
    <title>Partly_Sunny_2</title>
    <desc>Created with Sketch.</desc>
    <defs></defs>
    <g id="Icons" stroke="none" stroke-width="1" fill="none" fill-rule="evenodd" sketch:type="MSPage">
        <g id="Partly_Sunny_2" sketch:type="MSArtboardGroup" stroke="#FFFFFF" stroke-width="7">
            <g id="Partly-Sunny-2" sketch:type="MSLayerGroup" transform="translate(11.000000, 36.000000)">
                <path d="M237.577734,112.380935 C260.293097,112.193798 278.649635,93.7053346 278.649635,70.9256703 C278.649635,48.0297685 260.105284,29.4689728 237.229667,29.4689728 C233.975665,29.4689728 230.809303,29.8445391 227.771492,30.554726 C218.408451,17.6524309 203.214976,9.26318741 186.063824,9.26318741 C160.539608,9.26318741 139.351091,27.8429886 135.262596,52.2269512 C132.60218,51.4721941 129.794441,51.0682605 126.892441,51.0682605 C109.976019,51.0682605 96.262549,64.793891 96.262549,81.7253142 C96.262549,98.6567374 109.976019,112.382368 126.892441,112.382368 L237.577734,112.382368 L237.577734,112.380935 Z" id="Cloud-4" fill-opacity="0.2" fill="#FFFFFF" sketch:type="MSShapeGroup"></path>
                <path d="M33.756222,79.6287777 C29.8555561,84.7732247 27.5407725,91.1883454 27.5407725,98.1445922 C27.5407725,115.076015 41.2542424,128.801646 58.1706649,128.801646 L168.855958,128.801646 L168.855958,128.800213 C182.053142,128.69149 193.779055,122.405366 201.288701,112.689274 L201.288701,112.689274 L126.834038,112.689274 C109.917616,112.689274 96.2041462,98.9636434 96.2041462,82.0322202 C96.2041462,65.100797 109.917616,51.3751666 126.834038,51.3751666 C129.736038,51.3751666 132.543777,51.7791001 135.204193,52.5338572 C136.425121,45.2521884 139.17098,38.4881179 143.101847,32.5818676 C135.524194,28.1938986 126.72615,25.6824654 117.342048,25.6824654 C103.416818,25.6824654 90.782092,31.2126667 81.5106221,40.1984784 C76.7686429,28.0560912 64.9471394,19.4532274 51.1143757,19.4532274 C33.1011448,19.4532274 18.498536,34.0416508 18.498536,52.0373832 C18.498536,63.6597457 24.5894187,73.8608884 33.756222,79.6287777 Z" id="Cloud" fill-opacity="0.2" fill="#FFFFFF" sketch:type="MSShapeGroup"></path>
                <path d="M201.288701,112.689274 C193.779055,122.405366 182.053142,128.69149 168.855958,128.800213 L168.855958,128.801646 L58.1706649,128.801646 C41.2542424,128.801646 27.5407725,115.076015 27.5407725,98.1445922 C27.5407725,81.213169 41.2542424,67.4875385 58.1706649,67.4875385 C61.0726642,67.4875385 63.8804034,67.891472 66.5408196,68.6462292 C70.6293147,44.2622666 91.8178311,25.6824654 117.342048,25.6824654 C126.72615,25.6824654 135.524194,28.1938986 143.101847,32.5818676 C139.17098,38.4881179 136.425121,45.2521884 135.204193,52.5338572 C132.543777,51.7791001 129.736038,51.3751666 126.834038,51.3751666 C109.917616,51.3751666 96.2041462,65.100797 96.2041462,82.0322202 C96.2041462,98.9636434 109.917616,112.689274 126.834038,112.689274 L201.288701,112.689274 L201.288701,112.689274 Z" id="Cloud-2" sketch:type="MSShapeGroup"></path>
                <g id="Sun-Rays" sketch:type="MSShapeGroup" stroke-linecap="round">
                    <path d="M51.5,18.9668967 L51.5,0.486330684" id="0"></path>
                    <path d="M74.640932,28.3038139 L87.7213722,15.2360804" id="45"></path>
                    <path d="M11.9583158,88.6088187 L25.0387561,75.5410852" id="225"></path>
                    <path d="M9.5,60.7913355 L9.5,42.3107695" id="270" transform="translate(9.500000, 51.551052) rotate(90.000000) translate(-9.500000, -51.551052) "></path>
                    <path d="M25.8523786,27.9324169 L12.7719384,14.8646833" id="315"></path>
                </g>
            </g>
        </g>
    </g>
</svg>