<?xml version="1.0" encoding="UTF-8" standalone="no"?>
<svg width="300px" height="200px" viewBox="0 0 300 200" version="1.1" xmlns="http://www.w3.org/2000/svg" xmlns:xlink="http://www.w3.org/1999/xlink" xmlns:sketch="http://www.bohemiancoding.com/sketch/ns">
    <!-- Generator: Sketch 3.0.4 (8054) - http://www.bohemiancoding.com/sketch -->
    <title>Rainstorm</title>
    <desc>Created with Sketch.</desc>
    <defs></defs>
    <g id="Icons" stroke="none" stroke-width="1" fill="none" fill-rule="evenodd" sketch:type="MSPage">
        <g id="Rainstorm" sketch:type="MSArtboardGroup" stroke="#FFFFFF" stroke-width="7">
            <g id="Thunder-Storm-2" sketch:type="MSLayerGroup" transform="translate(12.000000, 14.000000)">
                <path d="M193.483459,110.472741 C185.412823,120.8817 172.810953,127.616095 158.627904,127.732571 L158.627904,127.734106 L39.6741245,127.734106 C21.4940002,127.734106 6.75609756,113.029684 6.75609756,94.8908591 C6.75609756,76.7520345 21.4940002,62.0476119 39.6741245,62.0476119 C42.792911,62.0476119 45.8103958,62.4803504 48.6695522,63.2889302 C53.0634687,37.1661162 75.8348238,17.2613657 103.265768,17.2613657 C113.350887,17.2613657 122.806169,19.9518924 130.949893,24.6527731 C126.725379,30.9802056 123.774398,38.2266307 122.462263,46.0275645 C119.603107,45.2189847 116.585622,44.7862462 113.466835,44.7862462 C95.286711,44.7862462 80.5488083,59.4906688 80.5488083,77.6294934 C80.5488083,95.768318 95.286711,110.472741 113.466835,110.472741 L193.483459,110.472741 L193.483459,110.472741 Z" id="Cloud--back" fill-opacity="0.2" fill="#FFFFFF" sketch:type="MSShapeGroup"></path>
                <path d="M232.48338,110.142413 C256.895642,109.941931 276.623462,90.1350324 276.623462,65.7309212 C276.623462,41.2022834 256.693798,21.3178937 232.109312,21.3178937 C228.612227,21.3178937 225.20933,21.7202422 221.944585,22.4810734 C211.882101,8.65869921 195.553633,-0.328791914 177.121244,-0.328791914 C149.6903,-0.328791914 126.918945,19.5759586 122.525029,45.6987726 C119.665872,44.8901928 116.648387,44.4574543 113.529601,44.4574543 C95.3494767,44.4574543 80.611574,59.1618769 80.611574,77.3007015 C80.611574,95.439526 95.3494767,110.143949 113.529601,110.143949 L232.48338,110.143949 L232.48338,110.142413 Z" id="Cloud--front" fill-opacity="0.2" fill="#FFFFFF" sketch:type="MSShapeGroup"></path>
                <g id="The-Rain-2" transform="translate(0.000000, 109.607843)" stroke-linecap="round" sketch:type="MSShapeGroup">
                    <path d="M40.8991944,19.240393 L-0.591801326,60.6669687" id="drop4"></path>
                    <path d="M80.022073,19.240393 L38.5310773,60.6669687" id="drop3"></path>
                    <path d="M123.048479,19.240393 L81.5574828,60.6669687" id="drop2"></path>
                    <path d="M162.211926,19.240393 L120.72093,60.6669687" id="drop1"></path>
                    <path d="M222.977124,0.807152795 L161.797953,61.8913358" id="drop"></path>
                </g>
            </g>
        </g>
    </g>
</svg>