<?xml version="1.0" encoding="UTF-8" standalone="no"?>
<svg width="300px" height="200px" viewBox="0 0 300 200" version="1.1" xmlns="http://www.w3.org/2000/svg" xmlns:xlink="http://www.w3.org/1999/xlink" xmlns:sketch="http://www.bohemiancoding.com/sketch/ns">
    <!-- Generator: Sketch 3.0.4 (8054) - http://www.bohemiancoding.com/sketch -->
    <title>Snow</title>
    <desc>Created with Sketch.</desc>
    <defs></defs>
    <g id="Icons" stroke="none" stroke-width="1" fill="none" fill-rule="evenodd" sketch:type="MSPage">
        <g id="Snow" sketch:type="MSArtboardGroup" stroke="#FFFFFF">
            <g id="Snow-2" sketch:type="MSLayerGroup" transform="translate(62.000000, 13.000000)">
                <path d="M58.6165538,69.230661 L88.4614377,50.1464177 L118.306322,69.0650388 L118.306322,103.130129 L88.4614377,120.312371 L58.6165538,103.130129 L58.6165538,69.230661 Z" id="Path-93" stroke-width="5" fill-opacity="0.1" fill="#FFFFFF" sketch:type="MSShapeGroup"></path>
                <path d="M88.5534591,1.08024691 L88.5534591,173.919753" id="Line" stroke-width="7" stroke-linecap="round" sketch:type="MSShapeGroup"></path>
                <path d="M3.21342118,85.2848101 L174.595884,85.2848101" id="Line" stroke-width="7" stroke-linecap="round" sketch:type="MSShapeGroup" transform="translate(88.904653, 88.607595) rotate(-30.000000) translate(-88.904653, -88.607595) "></path>
                <path d="M15.2294395,42.2743553 L163.651006,128.694108" id="Line-2" stroke-width="7" stroke-linecap="round" sketch:type="MSShapeGroup"></path>
                <g id="north-end" transform="translate(62.126143, 0.000000)" stroke-width="5" stroke-linecap="round" sketch:type="MSShapeGroup">
                    <path d="M26.7785098,27.0061728 L1.02654821,1.03527562" id="Line"></path>
                    <path d="M27.8496502,25.9708972 L53.6016119,0" id="Line-2"></path>
                </g>
                <g id="north-end-2" transform="translate(25.997222, 49.256001) rotate(-58.000000) translate(-25.997222, -49.256001) translate(-0.568816, 35.411064)" stroke-width="5" stroke-linecap="round" sketch:type="MSShapeGroup">
                    <path d="M26.7785098,27.0061728 L1.02654821,1.03527562" id="Line"></path>
                    <path d="M27.8496502,25.9708972 L53.6016119,2.30926389e-14" id="Line-2"></path>
                </g>
                <g id="north-end-right" transform="translate(151.045954, 48.823672) rotate(-300.000000) translate(-151.045954, -48.823672) translate(124.479917, 34.978736)" stroke-width="5" stroke-linecap="round" sketch:type="MSShapeGroup">
                    <path d="M26.7785098,27.0061728 L1.02654821,1.03527562" id="Line"></path>
                    <path d="M27.8496502,25.9708972 L53.6016119,1.59872116e-14" id="Line-2"></path>
                </g>
                <g id="south-end" transform="translate(62.126143, 146.913580)" stroke-width="5" stroke-linecap="round" sketch:type="MSShapeGroup">
                    <path d="M52.4858793,27.0061728 L26.7339177,1.03527562" id="Line-2"></path>
                    <path d="M0,28.131391 L25.7519616,2.16049383" id="Line-3"></path>
                </g>
                <g id="south-end-left" transform="translate(26.337597, 121.451288) rotate(-300.000000) translate(-26.337597, -121.451288) translate(-0.228440, 107.606352)" stroke-width="5" stroke-linecap="round" sketch:type="MSShapeGroup">
                    <path d="M52.4858793,27.0061728 L26.7339177,1.03527562" id="Line-2"></path>
                    <path d="M-1.59872116e-14,28.131391 L25.7519616,2.16049383" id="Line-3"></path>
                </g>
                <g id="south-end-right" transform="translate(150.752955, 122.152883) rotate(-60.000000) translate(-150.752955, -122.152883) translate(124.186917, 108.307947)" stroke-width="5" stroke-linecap="round" sketch:type="MSShapeGroup">
                    <path d="M52.4858793,27.0061728 L26.7339177,1.03527562" id="Line-2"></path>
                    <path d="M8.70414851e-14,28.131391 L25.7519616,2.16049383" id="Line-3"></path>
                </g>
            </g>
        </g>
    </g>
</svg>