<?xml version="1.0" encoding="UTF-8" standalone="no"?>
<svg width="300px" height="200px" viewBox="0 0 300 200" version="1.1" xmlns="http://www.w3.org/2000/svg" xmlns:xlink="http://www.w3.org/1999/xlink" xmlns:sketch="http://www.bohemiancoding.com/sketch/ns">
    <!-- Generator: Sketch 3.0.4 (8054) - http://www.bohemiancoding.com/sketch -->
    <title>Snowing</title>
    <desc>Created with Sketch.</desc>
    <defs></defs>
    <g id="Icons" stroke="none" stroke-width="1" fill="none" fill-rule="evenodd" sketch:type="MSPage">
        <g id="Snowing" sketch:type="MSArtboardGroup" stroke="#FFFFFF">
            <g id="Snowing-2" sketch:type="MSLayerGroup" transform="translate(11.000000, 12.000000)">
                <path d="M198.323942,107.368371 C190.527796,117.484831 178.354529,124.029984 164.65386,124.143187 L164.65386,124.144679 L49.7458197,124.144679 C32.18402,124.144679 17.9473684,109.853462 17.9473684,92.2243524 C17.9473684,74.5952429 32.18402,60.3040259 49.7458197,60.3040259 C52.758533,60.3040259 55.6733901,60.7246041 58.4353037,61.5104622 C62.6797787,36.1217195 84.6766567,16.776308 111.174646,16.776308 C120.91676,16.776308 130.050458,19.3912288 137.917206,23.9600111 C133.836372,30.1096378 130.985757,37.1524327 129.718249,44.7341543 C126.956335,43.9482962 124.041478,43.527718 121.028765,43.527718 C103.466965,43.527718 89.2303138,57.8189349 89.2303138,75.4480444 C89.2303138,93.077154 103.466965,107.368371 121.028765,107.368371 L198.323942,107.368371 L198.323942,107.368371 Z" id="Cloud--back" stroke-width="7" fill-opacity="0.2" fill="#FFFFFF" sketch:type="MSShapeGroup"></path>
                <path d="M235.997436,107.047326 C259.579411,106.852478 278.636268,87.6021681 278.636268,63.8838314 C278.636268,40.0444673 259.384433,20.7188444 235.63609,20.7188444 C232.257945,20.7188444 228.970783,21.1098865 225.817076,21.8493378 C216.096827,8.41538305 200.323707,-0.319552606 182.518222,-0.319552606 C156.020233,-0.319552606 134.023355,19.025859 129.77888,44.4146017 C127.016966,43.6287436 124.102109,43.2081653 121.089396,43.2081653 C103.527596,43.2081653 89.2909448,57.4993823 89.2909448,75.1284918 C89.2909448,92.7576014 103.527596,107.048818 121.089396,107.048818 L235.997436,107.048818 L235.997436,107.047326 Z" id="Cloud--front" stroke-width="7" fill-opacity="0.2" fill="#FFFFFF" sketch:type="MSShapeGroup"></path>
                <g id="Snow-Row1" transform="translate(0.000000, 157.333333)" sketch:type="MSShapeGroup">
                    <g id="Snow--x-small5" transform="translate(156.631579, 0.000000)">
                        <path d="M6.4799864,7.78020762 L9.77930083,5.63550218 L13.0786153,7.76159484 L13.0786153,11.5898621 L9.77930083,13.5208189 L6.4799864,11.5898621 L6.4799864,7.78020762 Z" id="Path-93" fill="#FFFFFF"></path>
                        <path d="M9.78947368,0.121399177 L9.78947368,19.5452675" id="Line" stroke-linecap="round"></path>
                        <path d="M0.355239676,9.4057971 L19.3013557,9.4057971" id="Line" stroke-linecap="round" transform="translate(9.828298, 9.833333) rotate(-30.000000) translate(-9.828298, -9.833333) "></path>
                        <path d="M1.68359541,4.75083231 L18.0914132,14.4627665" id="Line-2" stroke-linecap="round"></path>
                        <g id="north-end" transform="translate(6.867967, 0.000000)" stroke-linecap="round">
                            <path d="M2.96033063,3.03497942 L0.113483616,0.11634526" id="Line"></path>
                            <path d="M3.07874386,2.91863416 L5.92559087,0" id="Line-2"></path>
                        </g>
                        <g id="north-end-2" transform="translate(3.026498, 5.580659) rotate(-58.000000) translate(-3.026498, -5.580659) translate(0.047093, 3.870514)" stroke-linecap="round">
                            <path d="M2.96033063,3.03497942 L0.113483616,0.11634526" id="Line"></path>
                            <path d="M3.07874386,2.91863416 L5.92559087,-2.35367281e-14" id="Line-2"></path>
                        </g>
                        <g id="north-end-right" transform="translate(16.586484, 5.601254) rotate(-300.000000) translate(-16.586484, -5.601254) translate(13.607079, 3.891109)" stroke-linecap="round">
                            <path d="M2.96033063,3.03497942 L0.113483616,0.11634526" id="Line"></path>
                            <path d="M3.07874386,2.91863416 L5.92559087,1.97619698e-14" id="Line-2"></path>
                        </g>
                        <g id="south-end" transform="translate(6.867967, 16.510288)" stroke-linecap="round">
                            <path d="M5.80224804,3.03497942 L2.95540102,0.11634526" id="Line-2"></path>
                            <path d="M0,3.16143252 L2.84684701,0.242798354" id="Line-3"></path>
                        </g>
                        <g id="south-end-left" transform="translate(2.800132, 13.763215) rotate(-300.000000) translate(-2.800132, -13.763215) translate(-0.179273, 12.053070)" stroke-linecap="round">
                            <path d="M5.80224804,3.03497942 L2.95540102,0.11634526" id="Line-2"></path>
                            <path d="M1.97619698e-14,3.16143252 L2.84684701,0.242798354" id="Line-3"></path>
                        </g>
                        <g id="south-end-right" transform="translate(16.819569, 13.767492) rotate(-60.000000) translate(-16.819569, -13.767492) translate(13.840164, 12.057347)" stroke-linecap="round">
                            <path d="M5.80224804,3.03497942 L2.95540102,0.11634526" id="Line-2"></path>
                            <path d="M-9.1038288e-15,3.16143252 L2.84684701,0.242798354" id="Line-3"></path>
                        </g>
                    </g>
                    <g id="Snow--x-small4" transform="translate(114.210526, 0.000000)">
                        <path d="M6.4799864,7.78020762 L9.77930083,5.63550218 L13.0786153,7.76159484 L13.0786153,11.5898621 L9.77930083,13.5208189 L6.4799864,11.5898621 L6.4799864,7.78020762 Z" id="Path-93" fill="#FFFFFF"></path>
                        <path d="M9.78947368,0.121399177 L9.78947368,19.5452675" id="Line" stroke-linecap="round"></path>
                        <path d="M0.355239676,9.4057971 L19.3013557,9.4057971" id="Line" stroke-linecap="round" transform="translate(9.828298, 9.833333) rotate(-30.000000) translate(-9.828298, -9.833333) "></path>
                        <path d="M1.68359541,4.75083231 L18.0914132,14.4627665" id="Line-2" stroke-linecap="round"></path>
                        <g id="north-end" transform="translate(6.867967, 0.000000)" stroke-linecap="round">
                            <path d="M2.96033063,3.03497942 L0.113483616,0.11634526" id="Line"></path>
                            <path d="M3.07874386,2.91863416 L5.92559087,0" id="Line-2"></path>
                        </g>
                        <g id="north-end-2" transform="translate(3.026498, 5.580659) rotate(-58.000000) translate(-3.026498, -5.580659) translate(0.047093, 3.870514)" stroke-linecap="round">
                            <path d="M2.96033063,3.03497942 L0.113483616,0.11634526" id="Line"></path>
                            <path d="M3.07874386,2.91863416 L5.92559087,-2.35367281e-14" id="Line-2"></path>
                        </g>
                        <g id="north-end-right" transform="translate(16.586484, 5.601254) rotate(-300.000000) translate(-16.586484, -5.601254) translate(13.607079, 3.891109)" stroke-linecap="round">
                            <path d="M2.96033063,3.03497942 L0.113483616,0.11634526" id="Line"></path>
                            <path d="M3.07874386,2.91863416 L5.92559087,1.97619698e-14" id="Line-2"></path>
                        </g>
                        <g id="south-end" transform="translate(6.867967, 16.510288)" stroke-linecap="round">
                            <path d="M5.80224804,3.03497942 L2.95540102,0.11634526" id="Line-2"></path>
                            <path d="M0,3.16143252 L2.84684701,0.242798354" id="Line-3"></path>
                        </g>
                        <g id="south-end-left" transform="translate(2.800132, 13.763215) rotate(-300.000000) translate(-2.800132, -13.763215) translate(-0.179273, 12.053070)" stroke-linecap="round">
                            <path d="M5.80224804,3.03497942 L2.95540102,0.11634526" id="Line-2"></path>
                            <path d="M1.97619698e-14,3.16143252 L2.84684701,0.242798354" id="Line-3"></path>
                        </g>
                        <g id="south-end-right" transform="translate(16.819569, 13.767492) rotate(-60.000000) translate(-16.819569, -13.767492) translate(13.840164, 12.057347)" stroke-linecap="round">
                            <path d="M5.80224804,3.03497942 L2.95540102,0.11634526" id="Line-2"></path>
                            <path d="M-9.1038288e-15,3.16143252 L2.84684701,0.242798354" id="Line-3"></path>
                        </g>
                    </g>
                    <g id="Snow--x-small3" transform="translate(75.052632, 0.000000)">
                        <path d="M6.4799864,7.78020762 L9.77930083,5.63550218 L13.0786153,7.76159484 L13.0786153,11.5898621 L9.77930083,13.5208189 L6.4799864,11.5898621 L6.4799864,7.78020762 Z" id="Path-93" fill="#FFFFFF"></path>
                        <path d="M9.78947368,0.121399177 L9.78947368,19.5452675" id="Line" stroke-linecap="round"></path>
                        <path d="M0.355239676,9.4057971 L19.3013557,9.4057971" id="Line" stroke-linecap="round" transform="translate(9.828298, 9.833333) rotate(-30.000000) translate(-9.828298, -9.833333) "></path>
                        <path d="M1.68359541,4.75083231 L18.0914132,14.4627665" id="Line-2" stroke-linecap="round"></path>
                        <g id="north-end" transform="translate(6.867967, 0.000000)" stroke-linecap="round">
                            <path d="M2.96033063,3.03497942 L0.113483616,0.11634526" id="Line"></path>
                            <path d="M3.07874386,2.91863416 L5.92559087,0" id="Line-2"></path>
                        </g>
                        <g id="north-end-2" transform="translate(3.026498, 5.580659) rotate(-58.000000) translate(-3.026498, -5.580659) translate(0.047093, 3.870514)" stroke-linecap="round">
                            <path d="M2.96033063,3.03497942 L0.113483616,0.11634526" id="Line"></path>
                            <path d="M3.07874386,2.91863416 L5.92559087,-2.35367281e-14" id="Line-2"></path>
                        </g>
                        <g id="north-end-right" transform="translate(16.586484, 5.601254) rotate(-300.000000) translate(-16.586484, -5.601254) translate(13.607079, 3.891109)" stroke-linecap="round">
                            <path d="M2.96033063,3.03497942 L0.113483616,0.11634526" id="Line"></path>
                            <path d="M3.07874386,2.91863416 L5.92559087,1.97619698e-14" id="Line-2"></path>
                        </g>
                        <g id="south-end" transform="translate(6.867967, 16.510288)" stroke-linecap="round">
                            <path d="M5.80224804,3.03497942 L2.95540102,0.11634526" id="Line-2"></path>
                            <path d="M0,3.16143252 L2.84684701,0.242798354" id="Line-3"></path>
                        </g>
                        <g id="south-end-left" transform="translate(2.800132, 13.763215) rotate(-300.000000) translate(-2.800132, -13.763215) translate(-0.179273, 12.053070)" stroke-linecap="round">
                            <path d="M5.80224804,3.03497942 L2.95540102,0.11634526" id="Line-2"></path>
                            <path d="M1.97619698e-14,3.16143252 L2.84684701,0.242798354" id="Line-3"></path>
                        </g>
                        <g id="south-end-right" transform="translate(16.819569, 13.767492) rotate(-60.000000) translate(-16.819569, -13.767492) translate(13.840164, 12.057347)" stroke-linecap="round">
                            <path d="M5.80224804,3.03497942 L2.95540102,0.11634526" id="Line-2"></path>
                            <path d="M-9.1038288e-15,3.16143252 L2.84684701,0.242798354" id="Line-3"></path>
                        </g>
                    </g>
                    <g id="Snow--x-small2" transform="translate(35.894737, 0.000000)">
                        <path d="M6.4799864,7.78020762 L9.77930083,5.63550218 L13.0786153,7.76159484 L13.0786153,11.5898621 L9.77930083,13.5208189 L6.4799864,11.5898621 L6.4799864,7.78020762 Z" id="Path-93" fill="#FFFFFF"></path>
                        <path d="M9.78947368,0.121399177 L9.78947368,19.5452675" id="Line" stroke-linecap="round"></path>
                        <path d="M0.355239676,9.4057971 L19.3013557,9.4057971" id="Line" stroke-linecap="round" transform="translate(9.828298, 9.833333) rotate(-30.000000) translate(-9.828298, -9.833333) "></path>
                        <path d="M1.68359541,4.75083231 L18.0914132,14.4627665" id="Line-2" stroke-linecap="round"></path>
                        <g id="north-end" transform="translate(6.867967, 0.000000)" stroke-linecap="round">
                            <path d="M2.96033063,3.03497942 L0.113483616,0.11634526" id="Line"></path>
                            <path d="M3.07874386,2.91863416 L5.92559087,0" id="Line-2"></path>
                        </g>
                        <g id="north-end-2" transform="translate(3.026498, 5.580659) rotate(-58.000000) translate(-3.026498, -5.580659) translate(0.047093, 3.870514)" stroke-linecap="round">
                            <path d="M2.96033063,3.03497942 L0.113483616,0.11634526" id="Line"></path>
                            <path d="M3.07874386,2.91863416 L5.92559087,-2.35367281e-14" id="Line-2"></path>
                        </g>
                        <g id="north-end-right" transform="translate(16.586484, 5.601254) rotate(-300.000000) translate(-16.586484, -5.601254) translate(13.607079, 3.891109)" stroke-linecap="round">
                            <path d="M2.96033063,3.03497942 L0.113483616,0.11634526" id="Line"></path>
                            <path d="M3.07874386,2.91863416 L5.92559087,1.97619698e-14" id="Line-2"></path>
                        </g>
                        <g id="south-end" transform="translate(6.867967, 16.510288)" stroke-linecap="round">
                            <path d="M5.80224804,3.03497942 L2.95540102,0.11634526" id="Line-2"></path>
                            <path d="M0,3.16143252 L2.84684701,0.242798354" id="Line-3"></path>
                        </g>
                        <g id="south-end-left" transform="translate(2.800132, 13.763215) rotate(-300.000000) translate(-2.800132, -13.763215) translate(-0.179273, 12.053070)" stroke-linecap="round">
                            <path d="M5.80224804,3.03497942 L2.95540102,0.11634526" id="Line-2"></path>
                            <path d="M1.97619698e-14,3.16143252 L2.84684701,0.242798354" id="Line-3"></path>
                        </g>
                        <g id="south-end-right" transform="translate(16.819569, 13.767492) rotate(-60.000000) translate(-16.819569, -13.767492) translate(13.840164, 12.057347)" stroke-linecap="round">
                            <path d="M5.80224804,3.03497942 L2.95540102,0.11634526" id="Line-2"></path>
                            <path d="M-9.1038288e-15,3.16143252 L2.84684701,0.242798354" id="Line-3"></path>
                        </g>
                    </g>
                    <g id="Snow--x-small1">
                        <path d="M6.4799864,7.78020762 L9.77930083,5.63550218 L13.0786153,7.76159484 L13.0786153,11.5898621 L9.77930083,13.5208189 L6.4799864,11.5898621 L6.4799864,7.78020762 Z" id="Path-93" fill="#FFFFFF"></path>
                        <path d="M9.78947368,0.121399177 L9.78947368,19.5452675" id="Line" stroke-linecap="round"></path>
                        <path d="M0.355239676,9.4057971 L19.3013557,9.4057971" id="Line" stroke-linecap="round" transform="translate(9.828298, 9.833333) rotate(-30.000000) translate(-9.828298, -9.833333) "></path>
                        <path d="M1.68359541,4.75083231 L18.0914132,14.4627665" id="Line-2" stroke-linecap="round"></path>
                        <g id="north-end" transform="translate(6.867967, 0.000000)" stroke-linecap="round">
                            <path d="M2.96033063,3.03497942 L0.113483616,0.11634526" id="Line"></path>
                            <path d="M3.07874386,2.91863416 L5.92559087,0" id="Line-2"></path>
                        </g>
                        <g id="north-end-2" transform="translate(3.026498, 5.580659) rotate(-58.000000) translate(-3.026498, -5.580659) translate(0.047093, 3.870514)" stroke-linecap="round">
                            <path d="M2.96033063,3.03497942 L0.113483616,0.11634526" id="Line"></path>
                            <path d="M3.07874386,2.91863416 L5.92559087,-2.35367281e-14" id="Line-2"></path>
                        </g>
                        <g id="north-end-right" transform="translate(16.586484, 5.601254) rotate(-300.000000) translate(-16.586484, -5.601254) translate(13.607079, 3.891109)" stroke-linecap="round">
                            <path d="M2.96033063,3.03497942 L0.113483616,0.11634526" id="Line"></path>
                            <path d="M3.07874386,2.91863416 L5.92559087,1.97619698e-14" id="Line-2"></path>
                        </g>
                        <g id="south-end" transform="translate(6.867967, 16.510288)" stroke-linecap="round">
                            <path d="M5.80224804,3.03497942 L2.95540102,0.11634526" id="Line-2"></path>
                            <path d="M0,3.16143252 L2.84684701,0.242798354" id="Line-3"></path>
                        </g>
                        <g id="south-end-left" transform="translate(2.800132, 13.763215) rotate(-300.000000) translate(-2.800132, -13.763215) translate(-0.179273, 12.053070)" stroke-linecap="round">
                            <path d="M5.80224804,3.03497942 L2.95540102,0.11634526" id="Line-2"></path>
                            <path d="M1.97619698e-14,3.16143252 L2.84684701,0.242798354" id="Line-3"></path>
                        </g>
                        <g id="south-end-right" transform="translate(16.819569, 13.767492) rotate(-60.000000) translate(-16.819569, -13.767492) translate(13.840164, 12.057347)" stroke-linecap="round">
                            <path d="M5.80224804,3.03497942 L2.95540102,0.11634526" id="Line-2"></path>
                            <path d="M-9.1038288e-15,3.16143252 L2.84684701,0.242798354" id="Line-3"></path>
                        </g>
                    </g>
                </g>
                <g id="Snow-Row2" transform="translate(27.736842, 131.111111)" sketch:type="MSShapeGroup">
                    <g id="Snow--x-small5" transform="translate(156.631579, 0.000000)">
                        <path d="M6.4799864,7.78020762 L9.77930083,5.63550218 L13.0786153,7.76159484 L13.0786153,11.5898621 L9.77930083,13.5208189 L6.4799864,11.5898621 L6.4799864,7.78020762 Z" id="Path-93" fill="#FFFFFF"></path>
                        <path d="M9.78947368,0.121399177 L9.78947368,19.5452675" id="Line" stroke-linecap="round"></path>
                        <path d="M0.355239676,9.4057971 L19.3013557,9.4057971" id="Line" stroke-linecap="round" transform="translate(9.828298, 9.833333) rotate(-30.000000) translate(-9.828298, -9.833333) "></path>
                        <path d="M1.68359541,4.75083231 L18.0914132,14.4627665" id="Line-2" stroke-linecap="round"></path>
                        <g id="north-end" transform="translate(6.867967, 0.000000)" stroke-linecap="round">
                            <path d="M2.96033063,3.03497942 L0.113483616,0.11634526" id="Line"></path>
                            <path d="M3.07874386,2.91863416 L5.92559087,0" id="Line-2"></path>
                        </g>
                        <g id="north-end-2" transform="translate(3.026498, 5.580659) rotate(-58.000000) translate(-3.026498, -5.580659) translate(0.047093, 3.870514)" stroke-linecap="round">
                            <path d="M2.96033063,3.03497942 L0.113483616,0.11634526" id="Line"></path>
                            <path d="M3.07874386,2.91863416 L5.92559087,-2.35367281e-14" id="Line-2"></path>
                        </g>
                        <g id="north-end-right" transform="translate(16.586484, 5.601254) rotate(-300.000000) translate(-16.586484, -5.601254) translate(13.607079, 3.891109)" stroke-linecap="round">
                            <path d="M2.96033063,3.03497942 L0.113483616,0.11634526" id="Line"></path>
                            <path d="M3.07874386,2.91863416 L5.92559087,1.97619698e-14" id="Line-2"></path>
                        </g>
                        <g id="south-end" transform="translate(6.867967, 16.510288)" stroke-linecap="round">
                            <path d="M5.80224804,3.03497942 L2.95540102,0.11634526" id="Line-2"></path>
                            <path d="M0,3.16143252 L2.84684701,0.242798354" id="Line-3"></path>
                        </g>
                        <g id="south-end-left" transform="translate(2.800132, 13.763215) rotate(-300.000000) translate(-2.800132, -13.763215) translate(-0.179273, 12.053070)" stroke-linecap="round">
                            <path d="M5.80224804,3.03497942 L2.95540102,0.11634526" id="Line-2"></path>
                            <path d="M1.97619698e-14,3.16143252 L2.84684701,0.242798354" id="Line-3"></path>
                        </g>
                        <g id="south-end-right" transform="translate(16.819569, 13.767492) rotate(-60.000000) translate(-16.819569, -13.767492) translate(13.840164, 12.057347)" stroke-linecap="round">
                            <path d="M5.80224804,3.03497942 L2.95540102,0.11634526" id="Line-2"></path>
                            <path d="M-9.1038288e-15,3.16143252 L2.84684701,0.242798354" id="Line-3"></path>
                        </g>
                    </g>
                    <g id="Snow--x-small4" transform="translate(114.210526, 0.000000)">
                        <path d="M6.4799864,7.78020762 L9.77930083,5.63550218 L13.0786153,7.76159484 L13.0786153,11.5898621 L9.77930083,13.5208189 L6.4799864,11.5898621 L6.4799864,7.78020762 Z" id="Path-93" fill="#FFFFFF"></path>
                        <path d="M9.78947368,0.121399177 L9.78947368,19.5452675" id="Line" stroke-linecap="round"></path>
                        <path d="M0.355239676,9.4057971 L19.3013557,9.4057971" id="Line" stroke-linecap="round" transform="translate(9.828298, 9.833333) rotate(-30.000000) translate(-9.828298, -9.833333) "></path>
                        <path d="M1.68359541,4.75083231 L18.0914132,14.4627665" id="Line-2" stroke-linecap="round"></path>
                        <g id="north-end" transform="translate(6.867967, 0.000000)" stroke-linecap="round">
                            <path d="M2.96033063,3.03497942 L0.113483616,0.11634526" id="Line"></path>
                            <path d="M3.07874386,2.91863416 L5.92559087,0" id="Line-2"></path>
                        </g>
                        <g id="north-end-2" transform="translate(3.026498, 5.580659) rotate(-58.000000) translate(-3.026498, -5.580659) translate(0.047093, 3.870514)" stroke-linecap="round">
                            <path d="M2.96033063,3.03497942 L0.113483616,0.11634526" id="Line"></path>
                            <path d="M3.07874386,2.91863416 L5.92559087,-2.35367281e-14" id="Line-2"></path>
                        </g>
                        <g id="north-end-right" transform="translate(16.586484, 5.601254) rotate(-300.000000) translate(-16.586484, -5.601254) translate(13.607079, 3.891109)" stroke-linecap="round">
                            <path d="M2.96033063,3.03497942 L0.113483616,0.11634526" id="Line"></path>
                            <path d="M3.07874386,2.91863416 L5.92559087,1.97619698e-14" id="Line-2"></path>
                        </g>
                        <g id="south-end" transform="translate(6.867967, 16.510288)" stroke-linecap="round">
                            <path d="M5.80224804,3.03497942 L2.95540102,0.11634526" id="Line-2"></path>
                            <path d="M0,3.16143252 L2.84684701,0.242798354" id="Line-3"></path>
                        </g>
                        <g id="south-end-left" transform="translate(2.800132, 13.763215) rotate(-300.000000) translate(-2.800132, -13.763215) translate(-0.179273, 12.053070)" stroke-linecap="round">
                            <path d="M5.80224804,3.03497942 L2.95540102,0.11634526" id="Line-2"></path>
                            <path d="M1.97619698e-14,3.16143252 L2.84684701,0.242798354" id="Line-3"></path>
                        </g>
                        <g id="south-end-right" transform="translate(16.819569, 13.767492) rotate(-60.000000) translate(-16.819569, -13.767492) translate(13.840164, 12.057347)" stroke-linecap="round">
                            <path d="M5.80224804,3.03497942 L2.95540102,0.11634526" id="Line-2"></path>
                            <path d="M-9.1038288e-15,3.16143252 L2.84684701,0.242798354" id="Line-3"></path>
                        </g>
                    </g>
                    <g id="Snow--x-small3" transform="translate(75.052632, 0.000000)">
                        <path d="M6.4799864,7.78020762 L9.77930083,5.63550218 L13.0786153,7.76159484 L13.0786153,11.5898621 L9.77930083,13.5208189 L6.4799864,11.5898621 L6.4799864,7.78020762 Z" id="Path-93" fill="#FFFFFF"></path>
                        <path d="M9.78947368,0.121399177 L9.78947368,19.5452675" id="Line" stroke-linecap="round"></path>
                        <path d="M0.355239676,9.4057971 L19.3013557,9.4057971" id="Line" stroke-linecap="round" transform="translate(9.828298, 9.833333) rotate(-30.000000) translate(-9.828298, -9.833333) "></path>
                        <path d="M1.68359541,4.75083231 L18.0914132,14.4627665" id="Line-2" stroke-linecap="round"></path>
                        <g id="north-end" transform="translate(6.867967, 0.000000)" stroke-linecap="round">
                            <path d="M2.96033063,3.03497942 L0.113483616,0.11634526" id="Line"></path>
                            <path d="M3.07874386,2.91863416 L5.92559087,0" id="Line-2"></path>
                        </g>
                        <g id="north-end-2" transform="translate(3.026498, 5.580659) rotate(-58.000000) translate(-3.026498, -5.580659) translate(0.047093, 3.870514)" stroke-linecap="round">
                            <path d="M2.96033063,3.03497942 L0.113483616,0.11634526" id="Line"></path>
                            <path d="M3.07874386,2.91863416 L5.92559087,-2.35367281e-14" id="Line-2"></path>
                        </g>
                        <g id="north-end-right" transform="translate(16.586484, 5.601254) rotate(-300.000000) translate(-16.586484, -5.601254) translate(13.607079, 3.891109)" stroke-linecap="round">
                            <path d="M2.96033063,3.03497942 L0.113483616,0.11634526" id="Line"></path>
                            <path d="M3.07874386,2.91863416 L5.92559087,1.97619698e-14" id="Line-2"></path>
                        </g>
                        <g id="south-end" transform="translate(6.867967, 16.510288)" stroke-linecap="round">
                            <path d="M5.80224804,3.03497942 L2.95540102,0.11634526" id="Line-2"></path>
                            <path d="M0,3.16143252 L2.84684701,0.242798354" id="Line-3"></path>
                        </g>
                        <g id="south-end-left" transform="translate(2.800132, 13.763215) rotate(-300.000000) translate(-2.800132, -13.763215) translate(-0.179273, 12.053070)" stroke-linecap="round">
                            <path d="M5.80224804,3.03497942 L2.95540102,0.11634526" id="Line-2"></path>
                            <path d="M1.97619698e-14,3.16143252 L2.84684701,0.242798354" id="Line-3"></path>
                        </g>
                        <g id="south-end-right" transform="translate(16.819569, 13.767492) rotate(-60.000000) translate(-16.819569, -13.767492) translate(13.840164, 12.057347)" stroke-linecap="round">
                            <path d="M5.80224804,3.03497942 L2.95540102,0.11634526" id="Line-2"></path>
                            <path d="M-9.1038288e-15,3.16143252 L2.84684701,0.242798354" id="Line-3"></path>
                        </g>
                    </g>
                    <g id="Snow--x-small2" transform="translate(35.894737, 0.000000)">
                        <path d="M6.4799864,7.78020762 L9.77930083,5.63550218 L13.0786153,7.76159484 L13.0786153,11.5898621 L9.77930083,13.5208189 L6.4799864,11.5898621 L6.4799864,7.78020762 Z" id="Path-93" fill="#FFFFFF"></path>
                        <path d="M9.78947368,0.121399177 L9.78947368,19.5452675" id="Line" stroke-linecap="round"></path>
                        <path d="M0.355239676,9.4057971 L19.3013557,9.4057971" id="Line" stroke-linecap="round" transform="translate(9.828298, 9.833333) rotate(-30.000000) translate(-9.828298, -9.833333) "></path>
                        <path d="M1.68359541,4.75083231 L18.0914132,14.4627665" id="Line-2" stroke-linecap="round"></path>
                        <g id="north-end" transform="translate(6.867967, 0.000000)" stroke-linecap="round">
                            <path d="M2.96033063,3.03497942 L0.113483616,0.11634526" id="Line"></path>
                            <path d="M3.07874386,2.91863416 L5.92559087,0" id="Line-2"></path>
                        </g>
                        <g id="north-end-2" transform="translate(3.026498, 5.580659) rotate(-58.000000) translate(-3.026498, -5.580659) translate(0.047093, 3.870514)" stroke-linecap="round">
                            <path d="M2.96033063,3.03497942 L0.113483616,0.11634526" id="Line"></path>
                            <path d="M3.07874386,2.91863416 L5.92559087,-2.35367281e-14" id="Line-2"></path>
                        </g>
                        <g id="north-end-right" transform="translate(16.586484, 5.601254) rotate(-300.000000) translate(-16.586484, -5.601254) translate(13.607079, 3.891109)" stroke-linecap="round">
                            <path d="M2.96033063,3.03497942 L0.113483616,0.11634526" id="Line"></path>
                            <path d="M3.07874386,2.91863416 L5.92559087,1.97619698e-14" id="Line-2"></path>
                        </g>
                        <g id="south-end" transform="translate(6.867967, 16.510288)" stroke-linecap="round">
                            <path d="M5.80224804,3.03497942 L2.95540102,0.11634526" id="Line-2"></path>
                            <path d="M0,3.16143252 L2.84684701,0.242798354" id="Line-3"></path>
                        </g>
                        <g id="south-end-left" transform="translate(2.800132, 13.763215) rotate(-300.000000) translate(-2.800132, -13.763215) translate(-0.179273, 12.053070)" stroke-linecap="round">
                            <path d="M5.80224804,3.03497942 L2.95540102,0.11634526" id="Line-2"></path>
                            <path d="M1.97619698e-14,3.16143252 L2.84684701,0.242798354" id="Line-3"></path>
                        </g>
                        <g id="south-end-right" transform="translate(16.819569, 13.767492) rotate(-60.000000) translate(-16.819569, -13.767492) translate(13.840164, 12.057347)" stroke-linecap="round">
                            <path d="M5.80224804,3.03497942 L2.95540102,0.11634526" id="Line-2"></path>
                            <path d="M-9.1038288e-15,3.16143252 L2.84684701,0.242798354" id="Line-3"></path>
                        </g>
                    </g>
                    <g id="Snow--x-small1">
                        <path d="M6.4799864,7.78020762 L9.77930083,5.63550218 L13.0786153,7.76159484 L13.0786153,11.5898621 L9.77930083,13.5208189 L6.4799864,11.5898621 L6.4799864,7.78020762 Z" id="Path-93" fill="#FFFFFF"></path>
                        <path d="M9.78947368,0.121399177 L9.78947368,19.5452675" id="Line" stroke-linecap="round"></path>
                        <path d="M0.355239676,9.4057971 L19.3013557,9.4057971" id="Line" stroke-linecap="round" transform="translate(9.828298, 9.833333) rotate(-30.000000) translate(-9.828298, -9.833333) "></path>
                        <path d="M1.68359541,4.75083231 L18.0914132,14.4627665" id="Line-2" stroke-linecap="round"></path>
                        <g id="north-end" transform="translate(6.867967, 0.000000)" stroke-linecap="round">
                            <path d="M2.96033063,3.03497942 L0.113483616,0.11634526" id="Line"></path>
                            <path d="M3.07874386,2.91863416 L5.92559087,0" id="Line-2"></path>
                        </g>
                        <g id="north-end-2" transform="translate(3.026498, 5.580659) rotate(-58.000000) translate(-3.026498, -5.580659) translate(0.047093, 3.870514)" stroke-linecap="round">
                            <path d="M2.96033063,3.03497942 L0.113483616,0.11634526" id="Line"></path>
                            <path d="M3.07874386,2.91863416 L5.92559087,-2.35367281e-14" id="Line-2"></path>
                        </g>
                        <g id="north-end-right" transform="translate(16.586484, 5.601254) rotate(-300.000000) translate(-16.586484, -5.601254) translate(13.607079, 3.891109)" stroke-linecap="round">
                            <path d="M2.96033063,3.03497942 L0.113483616,0.11634526" id="Line"></path>
                            <path d="M3.07874386,2.91863416 L5.92559087,1.97619698e-14" id="Line-2"></path>
                        </g>
                        <g id="south-end" transform="translate(6.867967, 16.510288)" stroke-linecap="round">
                            <path d="M5.80224804,3.03497942 L2.95540102,0.11634526" id="Line-2"></path>
                            <path d="M0,3.16143252 L2.84684701,0.242798354" id="Line-3"></path>
                        </g>
                        <g id="south-end-left" transform="translate(2.800132, 13.763215) rotate(-300.000000) translate(-2.800132, -13.763215) translate(-0.179273, 12.053070)" stroke-linecap="round">
                            <path d="M5.80224804,3.03497942 L2.95540102,0.11634526" id="Line-2"></path>
                            <path d="M1.97619698e-14,3.16143252 L2.84684701,0.242798354" id="Line-3"></path>
                        </g>
                        <g id="south-end-right" transform="translate(16.819569, 13.767492) rotate(-60.000000) translate(-16.819569, -13.767492) translate(13.840164, 12.057347)" stroke-linecap="round">
                            <path d="M5.80224804,3.03497942 L2.95540102,0.11634526" id="Line-2"></path>
                            <path d="M-9.1038288e-15,3.16143252 L2.84684701,0.242798354" id="Line-3"></path>
                        </g>
                    </g>
                </g>
            </g>
        </g>
    </g>
</svg>